<?xml version="1.0" encoding="utf-8"?>
<!-- Generator: Adobe Illustrator 24.0.3, SVG Export Plug-In . SVG Version: 6.00 Build 0)  -->
<svg version="1.1" id="Layer_1" xmlns="http://www.w3.org/2000/svg" xmlns:xlink="http://www.w3.org/1999/xlink" x="0px" y="0px"
	 viewBox="0 0 1024 501" style="enable-background:new 0 0 1024 501;" xml:space="preserve">
<style type="text/css">
	.st0{fill:none;}
	.st1{font-family:'BradleyHandITCTT-Bold';}
	.st2{font-size:117.4599px;}
	.st3{fill:#FFFFFF;}
	.st4{font-size:58.7299px;}
</style>
<rect x="142.4" y="33" class="st0" width="811.61" height="127.25"/>
<text transform="matrix(1.0322 0 0 1 142.3979 110.0527)" class="st1 st2">QLDB Guide</text>
<rect x="38" y="160.25" width="242.47" height="195.77"/>
<rect x="378.13" y="160.25" width="242.47" height="195.77"/>
<rect x="718.27" y="160.25" width="242.47" height="195.77"/>
<rect x="86.83" y="217.35" class="st3" width="136.39" height="78.31"/>
<rect x="420.23" y="217.35" class="st3" width="136.39" height="78.31"/>
<rect x="773.84" y="217.35" class="st3" width="136.39" height="78.31"/>
<rect x="258.58" y="230.4" width="126.29" height="44.05"/>
<rect x="591.98" y="230.4" width="146.49" height="44.05"/>
<rect x="295.63" y="305.44" width="70.72" height="47.31"/>
<ellipse cx="330.99" cy="302.18" rx="20.21" ry="9.79"/>
<rect x="321.2" y="300" class="st3" width="17.8" height="6"/>
<rect x="78.41" y="398.43" class="st0" width="907.59" height="81.57"/>
<text transform="matrix(1.0322 0 0 1 78.4121 436.957)" class="st1 st4">An open guide to Amazon QLDB</text>
<rect x="631.64" y="305.87" width="70.72" height="47.31"/>
<ellipse cx="667" cy="302.61" rx="20.21" ry="9.79"/>
<rect x="657.21" y="300.43" class="st3" width="17.8" height="6"/>
<rect x="329" y="322" class="st3" width="4" height="15"/>
<rect x="665" y="322" class="st3" width="4" height="15"/>
</svg>
