<?xml version="1.0" encoding="utf-8"?>
<!-- Generator: Adobe Illustrator 24.1.0, SVG Export Plug-In . SVG Version: 6.00 Build 0)  -->
<svg version="1.1" id="Layer_1" xmlns="http://www.w3.org/2000/svg" xmlns:xlink="http://www.w3.org/1999/xlink" x="0px" y="0px"
	 viewBox="0 0 720 241" style="enable-background:new 0 0 720 241;" xml:space="preserve">
<style type="text/css">
	.st0{fill:#3B48CC;}
	.st1{fill:#FFFFFF;}
	.st2{fill:#7AC943;}
	.st3{fill:none;stroke:#000000;stroke-width:2;stroke-miterlimit:10;}
	.st4{fill:#0071BC;}
	.st5{fill:#29ABE2;}
	.st6{fill:#BDCCD4;}
	.st7{fill:none;}
	.st8{font-family:'MyriadPro-Regular';}
	.st9{font-size:12px;}
</style>
<g id="Reference">
	<rect id="Blue_Light_BG" x="34.5" y="55.5" class="st0" width="143.5" height="143.5"/>
	<g id="Product_Icon">
		<path class="st1" d="M89.1,108.2c-16.9,0-29.7-5.4-29.7-12.5s12.8-12.5,29.7-12.5s29.7,5.4,29.7,12.5S106.1,108.2,89.1,108.2z
			 M89.1,86.2c-15.8,0-26.8,5-26.8,9.6s11,9.6,26.8,9.6s26.8-5,26.8-9.6S104.9,86.2,89.1,86.2z"/>
		<rect x="116" y="95.8" class="st1" width="2.9" height="21.2"/>
		<path class="st1" d="M89.1,171.2c-16.9,0-29.8-5.4-29.8-12.4v-63h2.9v63c0,4.5,11,9.6,26.8,9.6s26.8-5,26.8-9.6v-13.4h2.9v13.4
			C118.9,165.8,106.1,171.2,89.1,171.2z"/>
		<path class="st1" d="M76.8,129.2c-10.8-2-17.2-6.3-17.2-11.5h2.9c0,3.4,6,6.8,14.9,8.5L76.8,129.2z"/>
		<path class="st1" d="M89.2,151.9c-16.9,0-29.6-5.4-29.6-12.5h2.9c0,4.5,11,9.6,26.8,9.6c12.7,0,19.3-3,19.4-3l1.2,2.6
			C109.6,148.7,102.6,151.9,89.2,151.9z"/>
		<path class="st1" d="M95.3,137.8h-6.5c-1.9,0-3.4-1.5-3.4-3.4v-6.5c0-1.9,1.5-3.4,3.3-3.5c0,0,0,0,0,0h6.5c1.9,0,3.4,1.5,3.4,3.4
			v6.4c0.1,1.9-1.4,3.5-3.3,3.5C95.4,137.8,95.3,137.8,95.3,137.8z M88.8,127.4c-0.3,0-0.5,0.2-0.5,0.5v6.4c0,0.3,0.2,0.5,0.5,0.5
			h6.5c0.3,0,0.5-0.2,0.5-0.5v-6.5c0-0.3-0.2-0.5-0.5-0.5L88.8,127.4z"/>
		<path class="st1" d="M120,137.8h-6.5c-1.9,0-3.4-1.5-3.4-3.4v-6.5c0-1.9,1.5-3.4,3.3-3.5c0,0,0,0,0,0h6.5c1.9,0,3.4,1.5,3.4,3.4
			v6.4c0.1,1.9-1.4,3.5-3.3,3.5C120,137.8,120,137.8,120,137.8z M113.5,127.4c-0.3,0-0.5,0.2-0.5,0.5v6.4c0,0.3,0.2,0.5,0.5,0.5h6.5
			c0.3,0,0.5-0.2,0.5-0.5v-6.5c0-0.3-0.2-0.5-0.5-0.5L113.5,127.4z"/>
		<path class="st1" d="M144.6,137.8h-6.4c-1.9,0-3.4-1.5-3.4-3.4v-6.5c0-1.9,1.5-3.4,3.3-3.5c0,0,0,0,0.1,0h6.4
			c1.9,0,3.4,1.5,3.4,3.4v6.4c0.1,1.9-1.4,3.5-3.3,3.5C144.7,137.8,144.7,137.8,144.6,137.8z M138.2,127.4c-0.3,0-0.5,0.2-0.5,0.5
			v6.4c0,0.3,0.2,0.5,0.5,0.5h6.4c0.3,0,0.5-0.2,0.5-0.5v-6.5c0-0.3-0.2-0.5-0.5-0.5L138.2,127.4z"/>
		<path class="st1" d="M150.1,142.7h-17.4c-1.6,0-2.9-1.3-2.9-3c0,0,0,0,0,0v-4.6h-1.5v4.6c0,1.6-1.3,2.9-2.9,2.9h-17.4
			c-1.6,0-2.9-1.3-2.9-2.9v-4.6h-1.5v4.6c0,1.6-1.3,2.9-2.9,2.9H83.3c-1.6,0-2.9-1.3-2.9-2.9v-17.2c0-1.6,1.3-2.9,2.9-2.9h17.4
			c1.6,0,2.9,1.3,2.9,2.9v5.7h1.5v-5.7c0-1.6,1.3-2.9,2.9-2.9h17.4c1.6,0,2.9,1.3,2.9,2.9l0,0v5.7h1.5v-5.7c0-1.6,1.3-2.9,2.9-2.9
			h17.4c1.6,0,3,1.2,3,2.8c0,0,0,0.1,0,0.1v17.2c0,1.6-1.3,3-2.9,3C150.2,142.7,150.2,142.7,150.1,142.7z M132.8,132.2v7.4h17.4
			v-17.2h-17.4v8.6h-7.3v-8.6h-17.4v8.6h-7.4v-8.6H83.3v17.2h17.4v-7.4h7.4v7.7h17.4v-7.6L132.8,132.2z"/>
	</g>
</g>
<rect x="239" y="76" class="st2" width="27" height="97"/>
<g>
	<g>
		<line class="st3" x1="189" y1="125" x2="210.9" y2="125"/>
		<g>
			<path d="M223,125c-5.7,2.1-12.7,5.7-17.1,9.5l3.4-9.5l-3.4-9.5C210.3,119.3,217.3,122.9,223,125z"/>
		</g>
	</g>
</g>
<rect x="275" y="76" class="st2" width="27" height="97"/>
<rect x="311" y="76" class="st2" width="27" height="97"/>
<rect x="347" y="76" class="st2" width="27" height="97"/>
<rect x="392" y="78" transform="matrix(0.9756 0.2197 -0.2197 0.9756 37.7014 -85.9253)" class="st2" width="26.2" height="97"/>
<rect x="500" y="159" class="st4" width="190" height="54"/>
<rect x="500" y="96" class="st5" width="190" height="54"/>
<rect x="500" y="33" class="st6" width="190" height="54"/>
<rect x="236.7" y="181.1" class="st7" width="169.1" height="30.1"/>
<text transform="matrix(1 0 0 1 247.6968 189.6431)" class="st8 st9">Kinesis-powered Data Stream</text>
<rect x="511.5" y="46.1" class="st7" width="169.1" height="38.9"/>
<text transform="matrix(1 0 0 1 528.6205 54.5796)"><tspan x="0" y="0" class="st8 st9">Event processing (e.g. AWS </tspan><tspan x="24.6" y="14.4" class="st8 st9">Lambda triggers)</tspan></text>
<rect x="506.5" y="165.7" class="st7" width="183.5" height="58.3"/>
<text transform="matrix(1 0 0 1 522.373 174.1792)"><tspan x="0" y="0" class="st8 st9">Linkage to other purpose built </tspan><tspan x="-14.1" y="14.4" class="st8 st9">database (e.g. Amazon Elasticsearch </tspan><tspan x="2.4" y="28.8" class="st8 st9">Service, Neptune, DynamoDB</tspan></text>
<rect x="509.2" y="108.7" class="st7" width="169.1" height="38.9"/>
<text transform="matrix(1 0 0 1 513.6349 117.1791)"><tspan x="0" y="0" class="st8 st9">Real time analytics (e.g. Amazon </tspan><tspan x="5" y="14.4" class="st8 st9">Athena, Kinesis Data Firehose)</tspan></text>
<rect x="1" y="1" class="st3" width="719" height="239"/>
<line class="st7" x1="417" y1="96" x2="466" y2="66"/>
<line class="st7" x1="415" y1="127" x2="470" y2="127"/>
<g>
	<g>
		<line class="st3" x1="432" y1="159" x2="476.2" y2="180.7"/>
		<g>
			<path d="M487,186c-6-0.6-13.9-0.5-19.5,1l7.3-7l1.1-10.1C478.1,175.3,482.8,181.6,487,186z"/>
		</g>
	</g>
</g>
<g>
	<g>
		<line class="st3" x1="432" y1="127" x2="474.9" y2="127"/>
		<g>
			<path d="M487,127c-5.7,2.1-12.7,5.7-17.1,9.5l3.4-9.5l-3.4-9.5C474.3,121.3,481.3,124.9,487,127z"/>
		</g>
	</g>
</g>
<g>
	<g>
		<line class="st3" x1="436" y1="96" x2="474.7" y2="72.3"/>
		<g>
			<path d="M485,66c-3.7,4.8-7.9,11.5-9.6,17l-2-9.9l-7.9-6.3C471.2,67.8,479.1,67.2,485,66z"/>
		</g>
	</g>
</g>
</svg>
