<?xml version="1.0" encoding="utf-8"?>
<!-- Generator: Adobe Illustrator 24.0.3, SVG Export Plug-In . SVG Version: 6.00 Build 0)  -->
<svg version="1.1" id="Layer_1" xmlns="http://www.w3.org/2000/svg" xmlns:xlink="http://www.w3.org/1999/xlink" x="0px" y="0px"
	 viewBox="0 0 905.3 433.1" style="enable-background:new 0 0 905.3 433.1;" xml:space="preserve">
<style type="text/css">
	.st0{fill:none;stroke:#000000;stroke-width:3;stroke-miterlimit:10;}
	.st1{fill:none;}
	.st2{font-family:'MyriadPro-Regular';}
	.st3{font-size:14px;}
	.st4{font-size:18px;}
	.st5{stroke:#000000;stroke-width:2;stroke-miterlimit:10;}
	.st6{fill:none;stroke:#000000;stroke-width:2;stroke-miterlimit:10;}
</style>
<g>
	<path d="M154.8,369h-6.1v-3h6.1c1.7,0,3-1.4,3-3v-32h-12.2c-3.4,0-6.1-2.7-6.1-6.1v-10.7v-3h-27.4c-1.7,0-3,1.4-3,3h-3.1
		c0-3.4,2.7-6.1,6.1-6.1c0,0,11.7,0,22.8,0c0.3,0,0.5,0,0.8,0c0.5,0,1.1,0,1.6,0h4.3l18.8,20.2l-0.1,0.5l0.5,0.5v4.6V363
		C160.8,366.3,158.1,369,154.8,369z M142.6,313.7v11.2c0,1.7,1.4,3,3,3h10.3L142.6,313.7z M120.6,317.3c0.5,0,1,0,1.6,0h4.3
		l18.8,20.2l-0.1,0.5l0.5,0.5v0.7v3.9v28.9c0,3.4-2.7,6.1-6.1,6.1H96.9c-3.4,0-6.1-2.7-6.1-6.1v-48.7c0-3.4,2.7-6.1,6.1-6.1
		c0,0,11.7,0,22.8,0C120,317.3,120.3,317.3,120.6,317.3z M127.4,322.9V334c0,1.7,1.4,3,3,3h10.3L127.4,322.9z M93.9,323.4v48.7
		c0,1.7,1.4,3,3,3h42.6c1.7,0,3-1.4,3-3v-32h-12.2c-3.4,0-6.1-2.7-6.1-6.1v-13.7H96.9C95.3,320.3,93.9,321.7,93.9,323.4z
		 M101.5,341.6h15.2v3h-15.2V341.6z M101.5,332.5h15.2v3h-15.2V332.5z M135,353.8h-33.5v-3H135V353.8L135,353.8z M135,363h-33.5v-3
		H135V363L135,363z"/>
</g>
<g>
	<path d="M187,342.7h-2v-4c0-3.9-3.1-7-7-7c-3.9,0-7,3.1-7,7v4h-2v-4c0-5,4-9,9-9s9,4,9,9V342.7z"/>
	<path d="M186,359.7h-16c-1.7,0-3-1.3-3-3v-12c0-1.7,1.3-3,3-3h16c1.7,0,3,1.3,3,3v12C189,358.4,187.7,359.7,186,359.7z M170,343.7
		c-0.6,0-1,0.4-1,1v12c0,0.6,0.4,1,1,1h16c0.6,0,1-0.4,1-1v-12c0-0.6-0.4-1-1-1H170z"/>
	<circle cx="178" cy="347.7" r="2"/>
	<path d="M178.5,347.7h-1l-1,6h3L178.5,347.7z"/>
</g>
<rect x="70.3" y="284.2" class="st0" width="136.2" height="114.3"/>
<g>
	<path d="M365.6,368.3h-6.1v-3h6.1c1.7,0,3-1.4,3-3v-32h-12.2c-3.4,0-6.1-2.7-6.1-6.1v-10.7v-3H323c-1.7,0-3,1.4-3,3h-3
		c0-3.4,2.7-6.1,6.1-6.1c0,0,11.7,0,22.8,0c0.3,0,0.5,0,0.8,0c0.5,0,1,0,1.6,0h4.3l18.8,20.2l-0.1,0.5l0.5,0.5v4.6v28.9
		C371.7,365.6,368.9,368.3,365.6,368.3z M353.4,313v11.2c0,1.7,1.4,3,3,3h10.3L353.4,313z M331.4,316.6c0.5,0,1,0,1.6,0h4.3
		l18.8,20.2l-0.1,0.5l0.5,0.5v0.7v3.9v28.9c0,3.4-2.7,6.1-6.1,6.1h-42.6c-3.4,0-6.1-2.7-6.1-6.1v-48.7c0-3.4,2.7-6.1,6.1-6.1
		c0,0,11.7,0,22.8,0C330.9,316.6,331.1,316.6,331.4,316.6z M338.2,322.2v11.2c0,1.7,1.4,3,3,3h10.3L338.2,322.2z M304.7,322.7v48.7
		c0,1.7,1.4,3,3,3h42.6c1.7,0,3-1.4,3-3v-32h-12.2c-3.4,0-6.1-2.7-6.1-6.1v-13.7h-27.4C306.1,319.6,304.7,321,304.7,322.7z
		 M312.3,340.9h15.2v3h-15.2V340.9z M312.3,331.8h15.2v3h-15.2V331.8z M345.8,353.1h-33.5v-3h33.5V353.1L345.8,353.1z M345.8,362.3
		h-33.5v-3h33.5V362.3L345.8,362.3z"/>
</g>
<g>
	<path d="M397.8,342h-2v-4c0-3.9-3.1-7-7-7s-7,3.1-7,7v4h-2v-4c0-5,4-9,9-9s9,4,9,9V342z"/>
	<path d="M396.8,359h-16c-1.7,0-3-1.3-3-3v-12c0-1.7,1.3-3,3-3h16c1.7,0,3,1.3,3,3v12C399.8,357.7,398.5,359,396.8,359z M380.8,343
		c-0.6,0-1,0.4-1,1v12c0,0.6,0.4,1,1,1h16c0.6,0,1-0.4,1-1v-12c0-0.6-0.4-1-1-1H380.8z"/>
	<circle cx="388.8" cy="347" r="2"/>
	<path d="M389.3,347h-1l-1,6h3L389.3,347z"/>
</g>
<rect x="281.1" y="283.5" class="st0" width="136.2" height="114.3"/>
<g>
	<path d="M574.2,367.7h-6.1v-3h6.1c1.7,0,3-1.4,3-3v-32H565c-3.4,0-6.1-2.7-6.1-6.1v-10.7v-3h-27.4c-1.7,0-3,1.4-3,3h-3
		c0-3.4,2.7-6.1,6.1-6.1c0,0,11.7,0,22.8,0c0.3,0,0.5,0,0.8,0c0.5,0,1,0,1.6,0h4.3l18.8,20.2l-0.1,0.5l0.5,0.5v4.6v28.9
		C580.3,365,577.5,367.7,574.2,367.7z M562,312.4v11.2c0,1.7,1.4,3,3,3h10.3L562,312.4z M540,315.9c0.5,0,1,0,1.6,0h4.3l18.8,20.2
		l-0.1,0.5l0.5,0.5v0.7v3.9v28.9c0,3.4-2.7,6.1-6.1,6.1h-42.6c-3.4,0-6.1-2.7-6.1-6.1V322c0-3.4,2.7-6.1,6.1-6.1c0,0,11.7,0,22.8,0
		C539.4,315.9,539.7,315.9,540,315.9z M546.8,321.5v11.2c0,1.7,1.4,3,3,3h10.3L546.8,321.5z M513.3,322v48.7c0,1.7,1.4,3,3,3H559
		c1.7,0,3-1.4,3-3v-32h-12.2c-3.4,0-6.1-2.7-6.1-6.1V319h-27.4C514.7,319,513.3,320.4,513.3,322z M520.9,340.3h15.2v3h-15.2V340.3z
		 M520.9,331.2h15.2v3h-15.2V331.2z M554.4,352.5h-33.5v-3h33.5V352.5L554.4,352.5z M554.4,361.6h-33.5v-3h33.5V361.6L554.4,361.6z"
		/>
</g>
<g>
	<path d="M606.4,341.3h-2v-4c0-3.9-3.1-7-7-7c-3.9,0-7,3.1-7,7v4h-2v-4c0-5,4-9,9-9s9,4,9,9V341.3z"/>
	<path d="M605.4,358.3h-16c-1.7,0-3-1.3-3-3v-12c0-1.7,1.3-3,3-3h16c1.7,0,3,1.3,3,3v12C608.4,357,607.1,358.3,605.4,358.3z
		 M589.4,342.3c-0.6,0-1,0.4-1,1v12c0,0.6,0.4,1,1,1h16c0.6,0,1-0.4,1-1v-12c0-0.6-0.4-1-1-1H589.4z"/>
	<circle cx="597.4" cy="346.3" r="2"/>
	<path d="M597.9,346.3h-1l-1,6h3L597.9,346.3z"/>
</g>
<rect x="489.7" y="282.9" class="st0" width="136.2" height="114.3"/>
<g>
	<path d="M784,367h-6.1v-3h6.1c1.7,0,3-1.4,3-3v-32h-12.2c-3.4,0-6.1-2.7-6.1-6.1v-10.7v-3h-27.4c-1.7,0-3,1.4-3,3h-3
		c0-3.4,2.7-6.1,6.1-6.1c0,0,11.7,0,22.8,0c0.3,0,0.5,0,0.8,0c0.5,0,1,0,1.6,0h4.3l18.8,20.2l-0.1,0.5l0.5,0.5v4.6v28.9
		C790.1,364.3,787.4,367,784,367z M771.8,311.7v11.2c0,1.7,1.4,3,3,3h10.3L771.8,311.7z M749.8,315.2c0.5,0,1,0,1.6,0h4.3l18.8,20.2
		l-0.1,0.5l0.5,0.5v0.7v3.9V370c0,3.4-2.7,6.1-6.1,6.1h-42.6c-3.4,0-6.1-2.7-6.1-6.1v-48.7c0-3.4,2.7-6.1,6.1-6.1c0,0,11.7,0,22.8,0
		C749.3,315.2,749.5,315.2,749.8,315.2z M756.6,320.8V332c0,1.7,1.4,3,3,3h10.3L756.6,320.8z M723.1,321.3V370c0,1.7,1.4,3,3,3h42.6
		c1.7,0,3-1.4,3-3v-32h-12.2c-3.4,0-6.1-2.7-6.1-6.1v-13.7h-27.4C724.5,318.3,723.1,319.7,723.1,321.3z M730.7,339.6h15.2v3h-15.2
		V339.6z M730.7,330.5h15.2v3h-15.2V330.5z M764.2,351.8h-33.5v-3h33.5V351.8L764.2,351.8z M764.2,360.9h-33.5v-3h33.5V360.9
		L764.2,360.9z"/>
</g>
<g>
	<path d="M816.2,340.6h-2v-4c0-3.9-3.1-7-7-7c-3.9,0-7,3.1-7,7v4h-2v-4c0-5,4-9,9-9s9,4,9,9V340.6z"/>
	<path d="M815.2,357.6h-16c-1.7,0-3-1.3-3-3v-12c0-1.7,1.3-3,3-3h16c1.7,0,3,1.3,3,3v12C818.2,356.3,816.9,357.6,815.2,357.6z
		 M799.2,341.6c-0.6,0-1,0.4-1,1v12c0,0.6,0.4,1,1,1h16c0.6,0,1-0.4,1-1v-12c0-0.6-0.4-1-1-1H799.2z"/>
	<circle cx="807.2" cy="345.6" r="2"/>
	<path d="M807.7,345.6h-1l-1,6h3L807.7,345.6z"/>
</g>
<rect x="699.5" y="282.2" class="st0" width="136.2" height="114.3"/>
<rect x="70.2" y="194.1" class="st0" width="136.3" height="43.1"/>
<g>
	<path d="M188.2,212.7h-2v-4c0-3.9-3.1-7-7-7c-3.9,0-7,3.1-7,7v4h-2v-4c0-5,4-9,9-9s9,4,9,9V212.7z"/>
	<path d="M187.2,229.7h-16c-1.7,0-3-1.3-3-3v-12c0-1.7,1.3-3,3-3h16c1.7,0,3,1.3,3,3v12C190.2,228.4,188.9,229.7,187.2,229.7z
		 M171.2,213.7c-0.6,0-1,0.4-1,1v12c0,0.6,0.4,1,1,1h16c0.6,0,1-0.4,1-1v-12c0-0.6-0.4-1-1-1H171.2z"/>
	<circle cx="179.2" cy="217.7" r="2"/>
	<path d="M179.7,217.7h-1l-1,6h3L179.7,217.7z"/>
</g>
<rect x="73.9" y="211.4" class="st1" width="93" height="16.5"/>
<text transform="matrix(1 0 0 1 79.0701 221.3805)" class="st2 st3">SHA-256 Hash</text>
<rect x="282.1" y="194.2" class="st0" width="136.3" height="43.1"/>
<g>
	<path d="M400.1,212.7h-2v-4c0-3.9-3.1-7-7-7s-7,3.1-7,7v4h-2v-4c0-5,4-9,9-9s9,4,9,9V212.7z"/>
	<path d="M399.1,229.7h-16c-1.7,0-3-1.3-3-3v-12c0-1.7,1.3-3,3-3h16c1.7,0,3,1.3,3,3v12C402.1,228.4,400.8,229.7,399.1,229.7z
		 M383.1,213.7c-0.6,0-1,0.4-1,1v12c0,0.6,0.4,1,1,1h16c0.6,0,1-0.4,1-1v-12c0-0.6-0.4-1-1-1H383.1z"/>
	<circle cx="391.1" cy="217.7" r="2"/>
	<path d="M391.6,217.7h-1l-1,6h3L391.6,217.7z"/>
</g>
<rect x="285.7" y="211.5" class="st1" width="93" height="16.5"/>
<text transform="matrix(1 0 0 1 290.9235 221.415)" class="st2 st3">SHA-256 Hash</text>
<rect x="484.7" y="192.2" class="st0" width="136.3" height="43.1"/>
<g>
	<path d="M602.7,210.7h-2v-4c0-3.9-3.1-7-7-7c-3.9,0-7,3.1-7,7v4h-2v-4c0-5,4-9,9-9s9,4,9,9V210.7z"/>
	<path d="M601.7,227.7h-16c-1.7,0-3-1.3-3-3v-12c0-1.7,1.3-3,3-3h16c1.7,0,3,1.3,3,3v12C604.7,226.4,603.4,227.7,601.7,227.7z
		 M585.7,211.7c-0.6,0-1,0.4-1,1v12c0,0.6,0.4,1,1,1h16c0.6,0,1-0.4,1-1v-12c0-0.6-0.4-1-1-1H585.7z"/>
	<circle cx="593.7" cy="215.7" r="2"/>
	<path d="M594.2,215.7h-1l-1,6h3L594.2,215.7z"/>
</g>
<rect x="488.3" y="209.5" class="st1" width="93" height="16.5"/>
<text transform="matrix(1 0 0 1 493.5421 219.415)" class="st2 st3">SHA-256 Hash</text>
<rect x="696.1" y="191.2" class="st0" width="136.3" height="43.1"/>
<g>
	<path d="M814.1,209.7h-2v-4c0-3.9-3.1-7-7-7c-3.9,0-7,3.1-7,7v4h-2v-4c0-5,4-9,9-9s9,4,9,9V209.7z"/>
	<path d="M813.1,226.7h-16c-1.7,0-3-1.3-3-3v-12c0-1.7,1.3-3,3-3h16c1.7,0,3,1.3,3,3v12C816.1,225.4,814.8,226.7,813.1,226.7z
		 M797.1,210.7c-0.6,0-1,0.4-1,1v12c0,0.6,0.4,1,1,1h16c0.6,0,1-0.4,1-1v-12c0-0.6-0.4-1-1-1H797.1z"/>
	<circle cx="805.1" cy="214.7" r="2"/>
	<path d="M805.6,214.7h-1l-1,6h3L805.6,214.7z"/>
</g>
<rect x="699.7" y="208.5" class="st1" width="93" height="16.5"/>
<text transform="matrix(1 0 0 1 704.8865 218.415)" class="st2 st3">SHA-256 Hash</text>
<rect x="176.1" y="110" class="st0" width="136.3" height="43.1"/>
<g>
	<path d="M294.1,128.6h-2v-4c0-3.9-3.1-7-7-7s-7,3.1-7,7v4h-2v-4c0-5,4-9,9-9s9,4,9,9V128.6z"/>
	<path d="M293.1,145.6h-16c-1.7,0-3-1.3-3-3v-12c0-1.7,1.3-3,3-3h16c1.7,0,3,1.3,3,3v12C296.1,144.3,294.8,145.6,293.1,145.6z
		 M277.1,129.6c-0.6,0-1,0.4-1,1v12c0,0.6,0.4,1,1,1h16c0.6,0,1-0.4,1-1v-12c0-0.6-0.4-1-1-1H277.1z"/>
	<circle cx="285.1" cy="133.6" r="2"/>
	<path d="M285.6,133.6h-1l-1,6h3L285.6,133.6z"/>
</g>
<rect x="179.7" y="127.3" class="st1" width="93" height="16.5"/>
<text transform="matrix(1 0 0 1 184.9235 137.2702)" class="st2 st3">SHA-256 Hash</text>
<rect x="593.7" y="110" class="st0" width="136.3" height="43.1"/>
<g>
	<path d="M711.7,128.6h-2v-4c0-3.9-3.1-7-7-7c-3.9,0-7,3.1-7,7v4h-2v-4c0-5,4-9,9-9s9,4,9,9V128.6z"/>
	<path d="M710.7,145.6h-16c-1.7,0-3-1.3-3-3v-12c0-1.7,1.3-3,3-3h16c1.7,0,3,1.3,3,3v12C713.7,144.3,712.4,145.6,710.7,145.6z
		 M694.7,129.6c-0.6,0-1,0.4-1,1v12c0,0.6,0.4,1,1,1h16c0.6,0,1-0.4,1-1v-12c0-0.6-0.4-1-1-1H694.7z"/>
	<circle cx="702.7" cy="133.6" r="2"/>
	<path d="M703.2,133.6h-1l-1,6h3L703.2,133.6z"/>
</g>
<rect x="597.3" y="127.4" class="st1" width="93" height="16.5"/>
<text transform="matrix(1 0 0 1 602.5457 137.3048)" class="st2 st3">SHA-256 Hash</text>
<rect x="391.1" y="41.7" class="st0" width="136.3" height="43.1"/>
<g>
	<path d="M509.1,60.3h-2v-4c0-3.9-3.1-7-7-7s-7,3.1-7,7v4h-2v-4c0-5,4-9,9-9s9,4,9,9V60.3z"/>
	<path d="M508.1,77.3h-16c-1.7,0-3-1.3-3-3v-12c0-1.7,1.3-3,3-3h16c1.7,0,3,1.3,3,3v12C511.1,76,509.8,77.3,508.1,77.3z M492.1,61.3
		c-0.6,0-1,0.4-1,1v12c0,0.6,0.4,1,1,1h16c0.6,0,1-0.4,1-1v-12c0-0.6-0.4-1-1-1H492.1z"/>
	<circle cx="500.1" cy="65.3" r="2"/>
	<path d="M500.6,65.3h-1l-1,6h3L500.6,65.3z"/>
</g>
<rect x="394.7" y="59" class="st1" width="93" height="16.5"/>
<text transform="matrix(1 0 0 1 399.927 68.9496)" class="st2 st3">SHA-256 Hash</text>
<rect x="408.6" y="19.5" class="st1" width="93" height="16.5"/>
<text transform="matrix(1 0 0 1 430.9223 32.2894)" class="st2 st4">Digest</text>
<rect x="206.5" y="336.6" class="st5" width="74.6" height="1.4"/>
<rect x="417.4" y="334.8" class="st5" width="70.4" height="0.9"/>
<polygon class="st5" points="699.5,334.5 626,334.5 626,334.5 699.5,334.5 "/>
<line class="st6" x1="138.4" y1="192.2" x2="219.9" y2="153.1"/>
<line class="st6" x1="546.8" y1="192.2" x2="656.2" y2="153.1"/>
<line class="st6" x1="763.3" y1="191.2" x2="682.3" y2="153.1"/>
<line class="st6" x1="240.8" y1="110" x2="391.7" y2="59"/>
<line class="st6" x1="654.2" y1="110" x2="527.4" y2="60.3"/>
<line class="st6" x1="349.2" y1="192.2" x2="258.7" y2="153.1"/>
</svg>
