<?xml version="1.0" encoding="utf-8"?>
<!-- Generator: Adobe Illustrator 24.0.3, SVG Export Plug-In . SVG Version: 6.00 Build 0)  -->
<svg version="1.1" id="Layer_1" xmlns="http://www.w3.org/2000/svg" xmlns:xlink="http://www.w3.org/1999/xlink" x="0px" y="0px"
	 viewBox="0 0 981.2 446.5" style="enable-background:new 0 0 981.2 446.5;" xml:space="preserve">
<style type="text/css">
	.st0{fill:none;stroke:#000000;stroke-width:3;stroke-miterlimit:10;}
	.st1{fill:none;}
	.st2{font-family:'MyriadPro-Regular';}
	.st3{font-size:14px;}
	.st4{font-size:24px;}
	.st5{stroke:#000000;stroke-width:2;stroke-miterlimit:10;}
	.st6{fill:none;stroke:#000000;stroke-width:2;stroke-miterlimit:10;}
</style>
<g>
	<path d="M230.7,393.4h-6.1v-3h6.1c1.7,0,3-1.4,3-3v-32h-12.2c-3.4,0-6.1-2.7-6.1-6.1v-10.7v-3h-27.4c-1.7,0-3,1.4-3,3H182
		c0-3.4,2.7-6.1,6.1-6.1c0,0,11.7,0,22.8,0c0.3,0,0.5,0,0.8,0c0.5,0,1.1,0,1.6,0h4.3l18.8,20.2l-0.1,0.5l0.5,0.5v4.6v28.9
		C236.8,390.7,234,393.4,230.7,393.4z M218.5,338.1v11.2c0,1.7,1.4,3,3,3h10.3L218.5,338.1z M196.5,341.7c0.5,0,1.1,0,1.6,0h4.3
		l18.8,20.2l-0.1,0.5l0.5,0.5v0.7v3.9v28.9c0,3.4-2.7,6.1-6.1,6.1h-42.6c-3.4,0-6.1-2.7-6.1-6.1v-48.7c0-3.4,2.7-6.1,6.1-6.1
		c0,0,11.7,0,22.8,0C195.9,341.7,196.2,341.7,196.5,341.7z M203.3,347.3v11.2c0,1.7,1.4,3,3,3h10.3L203.3,347.3z M169.8,347.8v48.7
		c0,1.7,1.4,3,3,3h42.6c1.7,0,3-1.4,3-3v-32h-12.2c-3.4,0-6.1-2.7-6.1-6.1v-13.7h-27.4C171.2,344.7,169.8,346.1,169.8,347.8z
		 M177.4,366h15.2v3h-15.2V366z M177.4,356.9h15.2v3h-15.2V356.9z M210.9,378.2h-33.5v-3h33.5V378.2L210.9,378.2z M210.9,387.4
		h-33.5v-3h33.5V387.4L210.9,387.4z"/>
</g>
<g>
	<path d="M262.9,367.1h-2v-4c0-3.9-3.1-7-7-7c-3.9,0-7,3.1-7,7v4h-2v-4c0-5,4-9,9-9c5,0,9,4,9,9V367.1z"/>
	<path d="M261.9,384.1h-16c-1.7,0-3-1.3-3-3v-12c0-1.7,1.3-3,3-3h16c1.7,0,3,1.3,3,3v12C264.9,382.8,263.6,384.1,261.9,384.1z
		 M245.9,368.1c-0.6,0-1,0.4-1,1v12c0,0.6,0.4,1,1,1h16c0.6,0,1-0.4,1-1v-12c0-0.6-0.4-1-1-1H245.9z"/>
	<circle cx="253.9" cy="372.1" r="2"/>
	<path d="M254.4,372.1h-1l-1,6h3L254.4,372.1z"/>
</g>
<rect x="146.2" y="297.6" class="st0" width="136.2" height="114.3"/>
<g>
	<path d="M441.5,392.7h-6.1v-3h6.1c1.7,0,3-1.4,3-3v-32h-12.2c-3.4,0-6.1-2.7-6.1-6.1v-10.7v-3h-27.4c-1.7,0-3,1.4-3,3h-3.1
		c0-3.4,2.7-6.1,6.1-6.1c0,0,11.7,0,22.8,0c0.3,0,0.5,0,0.8,0c0.5,0,1,0,1.6,0h4.3l18.8,20.2l-0.1,0.5l0.5,0.5v4.6v28.9
		C447.6,390,444.8,392.7,441.5,392.7z M429.3,337.4v11.2c0,1.7,1.4,3,3,3h10.3L429.3,337.4z M407.3,341c0.5,0,1,0,1.6,0h4.3
		l18.8,20.2l-0.1,0.5l0.5,0.5v0.7v3.9v28.9c0,3.4-2.7,6.1-6.1,6.1h-42.6c-3.4,0-6.1-2.7-6.1-6.1v-48.7c0-3.4,2.7-6.1,6.1-6.1
		c0,0,11.7,0,22.8,0C406.8,341,407,341,407.3,341z M414.1,346.6v11.2c0,1.7,1.4,3,3,3h10.3L414.1,346.6z M380.6,347.1v48.7
		c0,1.7,1.4,3,3,3h42.6c1.7,0,3-1.4,3-3v-32h-12.2c-3.4,0-6.1-2.7-6.1-6.1V344h-27.4C382,344,380.6,345.4,380.6,347.1z M388.2,365.3
		h15.2v3h-15.2V365.3z M388.2,356.2h15.2v3h-15.2V356.2z M421.7,377.5h-33.5v-3h33.5V377.5L421.7,377.5z M421.7,386.6h-33.5v-3h33.5
		V386.6L421.7,386.6z"/>
</g>
<g>
	<path d="M473.7,366.4h-2v-4c0-3.9-3.1-7-7-7c-3.9,0-7,3.1-7,7v4h-2v-4c0-5,4-9,9-9s9,4,9,9V366.4z"/>
	<path d="M472.7,383.4h-16c-1.7,0-3-1.3-3-3v-12c0-1.7,1.3-3,3-3h16c1.7,0,3,1.3,3,3v12C475.7,382.1,474.4,383.4,472.7,383.4z
		 M456.7,367.4c-0.6,0-1,0.4-1,1v12c0,0.6,0.4,1,1,1h16c0.6,0,1-0.4,1-1v-12c0-0.6-0.4-1-1-1H456.7z"/>
	<circle cx="464.7" cy="371.4" r="2"/>
	<path d="M465.2,371.4h-1l-1,6h3L465.2,371.4z"/>
</g>
<rect x="357" y="296.9" class="st0" width="136.2" height="114.3"/>
<g>
	<path d="M650.1,392.1H644v-3h6.1c1.7,0,3-1.4,3-3v-32H641c-3.4,0-6.1-2.7-6.1-6.1v-10.7v-3h-27.4c-1.7,0-3,1.4-3,3h-3
		c0-3.4,2.7-6.1,6.1-6.1c0,0,11.7,0,22.8,0c0.3,0,0.5,0,0.8,0c0.5,0,1.1,0,1.6,0h4.3l18.8,20.2l-0.1,0.5l0.5,0.5v4.6V386
		C656.2,389.4,653.4,392.1,650.1,392.1z M637.9,336.8v11.2c0,1.7,1.4,3,3,3h10.3L637.9,336.8z M615.9,340.3c0.5,0,1.1,0,1.6,0h4.3
		l18.8,20.2l-0.1,0.5l0.5,0.5v0.7v3.9v28.9c0,3.4-2.7,6.1-6.1,6.1h-42.6c-3.4,0-6.1-2.7-6.1-6.1v-48.7c0-3.4,2.7-6.1,6.1-6.1
		c0,0,11.7,0,22.8,0C615.4,340.3,615.6,340.3,615.9,340.3z M622.7,345.9v11.2c0,1.7,1.4,3,3,3H636L622.7,345.9z M589.2,346.4v48.7
		c0,1.7,1.4,3,3,3h42.6c1.7,0,3-1.4,3-3v-32h-12.2c-3.4,0-6.1-2.7-6.1-6.1v-13.7h-27.4C590.6,343.4,589.2,344.7,589.2,346.4z
		 M596.8,364.7H612v3h-15.2V364.7z M596.8,355.6H612v3h-15.2V355.6z M630.3,376.9h-33.5v-3h33.5V376.9L630.3,376.9z M630.3,386
		h-33.5v-3h33.5V386L630.3,386z"/>
</g>
<g>
	<path d="M682.3,365.7h-2v-4c0-3.9-3.1-7-7-7c-3.9,0-7,3.1-7,7v4h-2v-4c0-5,4-9,9-9s9,4,9,9V365.7z"/>
	<path d="M681.3,382.7h-16c-1.7,0-3-1.3-3-3v-12c0-1.7,1.3-3,3-3h16c1.7,0,3,1.3,3,3v12C684.3,381.4,683,382.7,681.3,382.7z
		 M665.3,366.7c-0.6,0-1,0.4-1,1v12c0,0.6,0.4,1,1,1h16c0.6,0,1-0.4,1-1v-12c0-0.6-0.4-1-1-1H665.3z"/>
	<circle cx="673.3" cy="370.7" r="2"/>
	<path d="M673.8,370.7h-1l-1,6h3L673.8,370.7z"/>
</g>
<rect x="565.6" y="296.3" class="st0" width="136.2" height="114.3"/>
<g>
	<path d="M859.9,391.4h-6.1v-3h6.1c1.7,0,3-1.4,3-3v-32h-12.2c-3.4,0-6.1-2.7-6.1-6.1v-10.7v-3h-27.4c-1.7,0-3,1.4-3,3h-3
		c0-3.4,2.7-6.1,6.1-6.1c0,0,11.7,0,22.8,0c0.3,0,0.5,0,0.8,0c0.5,0,1.1,0,1.6,0h4.3l18.8,20.2l-0.1,0.5l0.5,0.5v4.6v28.9
		C866,388.7,863.3,391.4,859.9,391.4z M847.7,336.1v11.2c0,1.7,1.4,3,3,3H861L847.7,336.1z M825.7,339.6c0.5,0,1.1,0,1.6,0h4.3
		l18.8,20.2l-0.1,0.5l0.5,0.5v0.7v3.9v28.9c0,3.4-2.7,6.1-6.1,6.1h-42.6c-3.4,0-6.1-2.7-6.1-6.1v-48.7c0-3.4,2.7-6.1,6.1-6.1
		c0,0,11.7,0,22.8,0C825.2,339.6,825.4,339.6,825.7,339.6z M832.5,345.2v11.2c0,1.7,1.4,3,3,3h10.3L832.5,345.2z M799,345.7v48.7
		c0,1.7,1.4,3,3,3h42.6c1.7,0,3-1.4,3-3v-32h-12.2c-3.4,0-6.1-2.7-6.1-6.1v-13.7h-27.4C800.4,342.7,799,344,799,345.7z M806.6,364
		h15.2v3h-15.2V364z M806.6,354.9h15.2v3h-15.2V354.9z M840.1,376.2h-33.5v-3h33.5V376.2L840.1,376.2z M840.1,385.3h-33.5v-3h33.5
		V385.3L840.1,385.3z"/>
</g>
<g>
	<path d="M892.1,365h-2v-4c0-3.9-3.1-7-7-7c-3.9,0-7,3.1-7,7v4h-2v-4c0-5,4-9,9-9s9,4,9,9V365z"/>
	<path d="M891.1,382h-16c-1.7,0-3-1.3-3-3v-12c0-1.7,1.3-3,3-3h16c1.7,0,3,1.3,3,3v12C894.1,380.7,892.8,382,891.1,382z M875.1,366
		c-0.6,0-1,0.4-1,1v12c0,0.6,0.4,1,1,1h16c0.6,0,1-0.4,1-1v-12c0-0.6-0.4-1-1-1H875.1z"/>
	<circle cx="883.1" cy="370" r="2"/>
	<path d="M883.6,370h-1l-1,6h3L883.6,370z"/>
</g>
<rect x="775.4" y="295.6" class="st0" width="136.2" height="114.3"/>
<rect x="146.2" y="207.5" class="st0" width="136.3" height="43.1"/>
<g>
	<path d="M264.2,226.1h-2v-4c0-3.9-3.1-7-7-7s-7,3.1-7,7v4h-2v-4c0-5,4-9,9-9s9,4,9,9V226.1z"/>
	<path d="M263.2,243.1h-16c-1.7,0-3-1.3-3-3v-12c0-1.7,1.3-3,3-3h16c1.7,0,3,1.3,3,3v12C266.2,241.8,264.9,243.1,263.2,243.1z
		 M247.2,227.1c-0.6,0-1,0.4-1,1v12c0,0.6,0.4,1,1,1h16c0.6,0,1-0.4,1-1v-12c0-0.6-0.4-1-1-1H247.2z"/>
	<circle cx="255.2" cy="231.1" r="2"/>
	<path d="M255.7,231.1h-1l-1,6h3L255.7,231.1z"/>
</g>
<rect x="149.8" y="224.8" class="st1" width="93" height="16.5"/>
<text transform="matrix(1 0 0 1 154.977 234.7758)" class="st2 st3">SHA-256 Hash</text>
<rect x="358" y="207.5" class="st0" width="136.3" height="43.1"/>
<g>
	<path d="M476,226.1h-2v-4c0-3.9-3.1-7-7-7s-7,3.1-7,7v4h-2v-4c0-5,4-9,9-9s9,4,9,9V226.1z"/>
	<path d="M475,243.1h-16c-1.7,0-3-1.3-3-3v-12c0-1.7,1.3-3,3-3h16c1.7,0,3,1.3,3,3v12C478,241.8,476.7,243.1,475,243.1z M459,227.1
		c-0.6,0-1,0.4-1,1v12c0,0.6,0.4,1,1,1h16c0.6,0,1-0.4,1-1v-12c0-0.6-0.4-1-1-1H459z"/>
	<circle cx="467" cy="231.1" r="2"/>
	<path d="M467.5,231.1h-1l-1,6h3L467.5,231.1z"/>
</g>
<rect x="361.6" y="224.9" class="st1" width="93" height="16.5"/>
<text transform="matrix(1 0 0 1 366.8303 234.8103)" class="st2 st3">SHA-256 Hash</text>
<rect x="560.6" y="205.5" class="st0" width="136.3" height="43.1"/>
<g>
	<path d="M678.6,224.1h-2v-4c0-3.9-3.1-7-7-7c-3.9,0-7,3.1-7,7v4h-2v-4c0-5,4-9,9-9s9,4,9,9V224.1z"/>
	<path d="M677.6,241.1h-16c-1.7,0-3-1.3-3-3v-12c0-1.7,1.3-3,3-3h16c1.7,0,3,1.3,3,3v12C680.6,239.8,679.3,241.1,677.6,241.1z
		 M661.6,225.1c-0.6,0-1,0.4-1,1v12c0,0.6,0.4,1,1,1h16c0.6,0,1-0.4,1-1v-12c0-0.6-0.4-1-1-1H661.6z"/>
	<circle cx="669.6" cy="229.1" r="2"/>
	<path d="M670.1,229.1h-1l-1,6h3L670.1,229.1z"/>
</g>
<rect x="564.2" y="222.9" class="st1" width="93" height="16.5"/>
<text transform="matrix(1 0 0 1 569.449 232.8103)" class="st2 st3">SHA-256 Hash</text>
<rect x="772" y="204.5" class="st0" width="136.3" height="43.1"/>
<g>
	<path d="M890,223.1h-2v-4c0-3.9-3.1-7-7-7c-3.9,0-7,3.1-7,7v4h-2v-4c0-5,4-9,9-9s9,4,9,9V223.1z"/>
	<path d="M889,240.1h-16c-1.7,0-3-1.3-3-3v-12c0-1.7,1.3-3,3-3h16c1.7,0,3,1.3,3,3v12C892,238.8,890.7,240.1,889,240.1z M873,224.1
		c-0.6,0-1,0.4-1,1v12c0,0.6,0.4,1,1,1h16c0.6,0,1-0.4,1-1v-12c0-0.6-0.4-1-1-1H873z"/>
	<circle cx="881" cy="228.1" r="2"/>
	<path d="M881.5,228.1h-1l-1,6h3L881.5,228.1z"/>
</g>
<rect x="775.6" y="221.9" class="st1" width="93" height="16.5"/>
<text transform="matrix(1 0 0 1 780.7934 231.8103)" class="st2 st3">SHA-256 Hash</text>
<rect x="252" y="123.4" class="st0" width="136.3" height="43.1"/>
<g>
	<path d="M370,142h-2v-4c0-3.9-3.1-7-7-7s-7,3.1-7,7v4h-2v-4c0-5,4-9,9-9s9,4,9,9V142z"/>
	<path d="M369,159h-16c-1.7,0-3-1.3-3-3v-12c0-1.7,1.3-3,3-3h16c1.7,0,3,1.3,3,3v12C372,157.7,370.7,159,369,159z M353,143
		c-0.6,0-1,0.4-1,1v12c0,0.6,0.4,1,1,1h16c0.6,0,1-0.4,1-1v-12c0-0.6-0.4-1-1-1H353z"/>
	<circle cx="361" cy="147" r="2"/>
	<path d="M361.5,147h-1l-1,6h3L361.5,147z"/>
</g>
<rect x="255.6" y="140.7" class="st1" width="93" height="16.5"/>
<text transform="matrix(1 0 0 1 260.8303 150.6655)" class="st2 st3">SHA-256 Hash</text>
<rect x="669.6" y="123.4" class="st0" width="136.3" height="43.1"/>
<g>
	<path d="M787.6,142h-2v-4c0-3.9-3.1-7-7-7c-3.9,0-7,3.1-7,7v4h-2v-4c0-5,4-9,9-9s9,4,9,9V142z"/>
	<path d="M786.6,159h-16c-1.7,0-3-1.3-3-3v-12c0-1.7,1.3-3,3-3h16c1.7,0,3,1.3,3,3v12C789.6,157.7,788.3,159,786.6,159z M770.6,143
		c-0.6,0-1,0.4-1,1v12c0,0.6,0.4,1,1,1h16c0.6,0,1-0.4,1-1v-12c0-0.6-0.4-1-1-1H770.6z"/>
	<circle cx="778.6" cy="147" r="2"/>
	<path d="M779.1,147h-1l-1,6h3L779.1,147z"/>
</g>
<rect x="673.3" y="140.8" class="st1" width="93" height="16.5"/>
<text transform="matrix(1 0 0 1 678.4525 150.7001)" class="st2 st3">SHA-256 Hash</text>
<rect x="467" y="55.1" class="st0" width="136.3" height="43.1"/>
<g>
	<path d="M585,73.7h-2v-4c0-3.9-3.1-7-7-7c-3.9,0-7,3.1-7,7v4h-2v-4c0-5,4-9,9-9s9,4,9,9V73.7z"/>
	<path d="M584,90.7h-16c-1.7,0-3-1.3-3-3v-12c0-1.7,1.3-3,3-3h16c1.7,0,3,1.3,3,3v12C587,89.4,585.7,90.7,584,90.7z M568,74.7
		c-0.6,0-1,0.4-1,1v12c0,0.6,0.4,1,1,1h16c0.6,0,1-0.4,1-1v-12c0-0.6-0.4-1-1-1H568z"/>
	<circle cx="576" cy="78.7" r="2"/>
	<path d="M576.5,78.7h-1l-1,6h3L576.5,78.7z"/>
</g>
<rect x="470.6" y="72.4" class="st1" width="93" height="16.5"/>
<text transform="matrix(1 0 0 1 475.8339 82.3449)" class="st2 st3">SHA-256 Hash</text>
<rect x="476.5" y="31.7" class="st1" width="112.3" height="27.7"/>
<text transform="matrix(1 0 0 1 500.4204 48.737)" class="st2 st4">Digest</text>
<rect x="282.5" y="349.9" class="st5" width="74.6" height="1.4"/>
<rect x="493.3" y="348.2" class="st5" width="70.4" height="0.9"/>
<polygon class="st5" points="775.4,347.9 701.9,347.9 701.9,347.9 775.4,347.9 "/>
<line class="st6" x1="214.3" y1="205.5" x2="295.8" y2="166.5"/>
<line class="st6" x1="622.7" y1="205.5" x2="732.2" y2="166.5"/>
<line class="st6" x1="839.2" y1="204.5" x2="758.2" y2="166.5"/>
<line class="st6" x1="316.7" y1="123.4" x2="467.6" y2="72.4"/>
<line class="st6" x1="730.2" y1="123.4" x2="603.3" y2="73.7"/>
<line class="st6" x1="425.2" y1="205.5" x2="334.6" y2="166.5"/>
<rect x="13.7" y="343.5" class="st1" width="151.7" height="25.8"/>
<text transform="matrix(1 0 0 1 52.6877 360.5889)" class="st2 st4">Journal</text>
<rect x="16.5" y="118.8" class="st1" width="151.7" height="61"/>
<text transform="matrix(1 0 0 1 58.301 135.8045)"><tspan x="0" y="0" class="st2 st4">Merkle</tspan><tspan x="12.1" y="28.8" class="st2 st4">Tree</tspan></text>
<rect x="154.2" y="302.2" class="st1" width="112.3" height="27.7"/>
<text transform="matrix(1 0 0 1 183.4042 319.2635)" class="st2 st4">Block</text>
<rect x="366.6" y="301.2" class="st1" width="112.3" height="27.7"/>
<text transform="matrix(1 0 0 1 395.8323 318.2635)" class="st2 st4">Block</text>
<rect x="575.6" y="301.2" class="st1" width="112.3" height="27.7"/>
<text transform="matrix(1 0 0 1 604.8157 318.2635)" class="st2 st4">Block</text>
<rect x="784.4" y="299.2" class="st1" width="112.3" height="27.7"/>
<text transform="matrix(1 0 0 1 813.6387 316.2635)" class="st2 st4">Block</text>
</svg>
