<?xml version="1.0" encoding="utf-8"?>
<!-- Generator: Adobe Illustrator 24.0.3, SVG Export Plug-In . SVG Version: 6.00 Build 0)  -->
<svg version="1.1" id="Layer_1" xmlns="http://www.w3.org/2000/svg" xmlns:xlink="http://www.w3.org/1999/xlink" x="0px" y="0px"
	 viewBox="0 0 722 371" style="enable-background:new 0 0 722 371;" xml:space="preserve">
<style type="text/css">
	.st0{fill:#FFFFFF;}
	.st1{fill:#3B48CC;}
	.st2{fill:#3F8624;}
	.st3{fill:url(#Purple_Gradient_1_);}
	.st4{fill:none;}
	.st5{font-family:'ArialMT';}
	.st6{font-size:14px;}
	.st7{font-size:12px;}
	.st8{font-size:10px;}
	.st9{fill:#232F3E;}
	.st10{fill-rule:evenodd;clip-rule:evenodd;fill:#FFFFFF;}
</style>
<g>
	<path d="M693.7,31.1c0,103.9,0,207.8,0,311.7c-222.4,0-444.7,0-667.1,0c0-1.1-0.1-2.2-0.1-3.3c0-101.5,0-203,0-304.5
		c0-0.7-0.2-1.5,0.1-2.1c0.3-0.7,1-1.4,1.7-1.6c0.8-0.3,1.7-0.1,2.6-0.1c219.7,0,439.3,0,659,0C691.1,31.2,692.4,31.1,693.7,31.1z
		 M28.1,33c0,1.1-0.1,1.8-0.1,2.6c0,101,0,202-0.1,303.1c0,2.4,0.8,2.9,3,2.9c219.7,0,439.4,0,659.1-0.1c0.9,0,1.8-0.1,2.8-0.1
		c0-102.9,0-205.6,0-308.4C471.3,33,249.8,33,28.1,33z"/>
	<path class="st0" d="M693.7,31.1c-1.3,0-2.6,0.1-3.8,0.1c-219.7,0-439.3,0-659,0c-0.9,0-1.8-0.2-2.6,0.1c-0.7,0.3-1.4,1-1.7,1.6
		s-0.1,1.4-0.1,2.1c0,101.5,0,203,0,304.5c0,1.1,0.1,2.2,0.1,3.3c-0.8,0-1.9,0.3-1.5-1.2c0.1-0.3,0-0.6,0-1c0-103.5,0-207,0-310.5
		c222.1,0,444.3,0,666.4,0.1C692.1,30.2,693.7,29,693.7,31.1z"/>
	<path class="st0" d="M28.1,33c221.7,0,443.2,0,664.8,0c0,102.8,0,205.4,0,308.4c-1,0-1.9,0.1-2.8,0.1c-219.7,0-439.4,0-659.1,0.1
		c-2.2,0-3-0.5-3-2.9c0.1-101,0.1-202,0.1-303.1C28,34.8,28.1,34,28.1,33z M447.2,192.9c0-1.5,0-2.5,0-3.5c0-35.4,0-70.8,0-106.2
		c0-3.1,0-3.1-3.1-3.1c-117.1,0-234.2,0-351.3,0c-3.1,0-3.1,0-3.1,3.2c0,24.5,0,48.9,0,73.4c0,0.6-0.1,1.3,0.1,1.9
		c0.1,0.4,0.7,0.7,1,1c0.2-0.1,0.4-0.2,0.6-0.3c0-25.8,0-51.5,0-77.3c118.2,0,236,0,353.9,0c0,74.9,0,149.5,0,224.3
		c-118,0-235.9,0-354,0c0-15.8,0-31.5,0-47.2c-0.3-0.1-0.7-0.1-1-0.2c-0.2,0.9-0.6,1.7-0.6,2.6c0,14.4,0,28.8,0,43.2
		c0,3.6,0,3.6,3.5,3.6c116.9,0,233.7,0,350.6,0c3.4,0,3.4,0,3.4-3.3c0-35.5,0-71,0-106.5c0-1,0-2,0-3.2c14.9,0,29.4,0,44.3,0
		c0,1.1,0,2.2,0,3.2c0,32.3,0,64.6,0,96.9c0,3.4,0,3.4,3.4,3.4c33.3,0,66.7,0,100,0c1.2,0,2.4,0.6,3.6,0.9c0,0.2,0,0.4,0,0.7
		c1.4-0.7,2.8-1.5,4.6-2.4c-1.9-0.9-3.4-1.7-4.8-2.4c0,0.3,0,0.6,0,0.9c-1.1,0.3-2.3,0.8-3.4,0.8c-32.9,0-65.7,0-98.6,0
		c-0.9,0-1.9-0.1-2.9-0.2c0-34.1,0-67.9,0-101.8c0.4-0.1,0.7-0.2,1-0.2c32.5,0,65.1,0,97.6,0.1c0.8,0,1.5,0.7,2.7,1.3
		c1-0.5,2.4-1.3,4.2-2.2c-1.9-1-3.4-1.7-4.9-2.5c0,0.3,0,0.6,0,0.9c-0.9,0.3-1.9,0.7-2.8,0.7c-32,0-63.9,0-95.9,0
		c-0.7,0-1.4-0.1-2.3-0.1c0-37.6,0-75.1,0-112.8c0.9,0,1.6-0.1,2.3-0.1c32.1,0,64.1,0,96.2,0c1.1,0,2.1,0.7,3.7,1.2
		c0.9-0.4,2.3-1.1,4-2c-1.9-0.9-3.3-1.7-4.8-2.4c0,0.3,0,0.5,0,0.8c-1.1,0.3-2.2,0.8-3.4,0.8c-32.1,0-64.1,0-96.2,0
		c-3.5,0-3.5,0-3.5,3.4c0,36,0,71.9,0,107.9c0,2.3-0.6,3-2.9,3c-12.8-0.1-25.6-0.1-38.4-0.1C449.3,192.9,448.4,192.9,447.2,192.9z
		 M178.1,200c-0.1,1.2-0.2,2.3-0.2,3.3c0,22.5,0,45.1,0,67.6c0,3.2,0,3.2,3.1,3.2c73.6,0,147.2,0,220.8,0c3.1,0,3.2,0,3.2-3.1
		c0-22.5,0-44.9,0-67.4c0-4.1,0.3-3.6-3.6-3.6c-35.5,0-71,0-106.4,0c-1.8,0-2.7-0.2-2.7-2.4c0.1-20.1,0.1-40.3,0-60.4
		c0-1.6,0.4-2.3,2.1-2.3c5,0.1,10.1,0,15.1,0.1c0.9,0,1.8,0.7,3.1,1.2c1-0.5,2.4-1.2,4.2-2.1c-1.9-1-3.3-1.7-4.8-2.4
		c0,0.2,0,0.4,0,0.6c-1,0.3-2,0.9-3.1,1c-12.3,0.1-24.6,0.1-36.9,0c-1.1,0-2.2-0.6-3.3-1c0-0.2,0-0.4,0-0.6
		c-1.4,0.8-2.8,1.5-4.6,2.5c1.8,0.9,3.2,1.6,4,2c1.6-0.6,2.6-1.2,3.6-1.2c5.4-0.1,10.9,0,16.3,0c0.8,0,1.5,0.1,2.3,0.1
		c0,21.7,0,43.2,0,64.9C252.9,200,215.6,200,178.1,200z M258.2,134.4c0.1,0,0.2,0,0.3,0c0-4,0-8,0-12c0-1.8-0.7-3.1-2.4-3.7
		c-6.3-2-12.7-2.1-19,0c-1.6,0.5-2.3,1.7-2.3,3.5c0.1,7.7,0.2,15.3,0.2,23c0,1.9,0.7,3.1,2.5,3.6c6.2,1.9,12.4,1.9,18.6,0
		c1.6-0.5,2.3-1.7,2.3-3.5C258.1,141.8,258.2,138.1,258.2,134.4z M345.5,134.4c0.1,0,0.2,0,0.3,0c0-3.7,0-7.5,0-11.2
		c0-1.9-0.7-3.3-2.5-3.9c-6.2-2-12.5-2-18.7,0c-1.7,0.5-2.5,1.7-2.5,3.6c0.1,7.5,0.2,15,0.2,22.5c0,1.8,0.7,3,2.3,3.5
		c6.3,2,12.5,2,18.8,0c1.5-0.5,2.3-1.5,2.2-3.3C345.4,141.9,345.5,138.1,345.5,134.4z M605,303c0.1,3.7,1.1,6.2,3.3,7.6
		s4.7,2.2,7.1,3.2c2.9,1.2,5.9,2.2,8.8,3.6c1.1,0.6,1.8,0.6,3,0c2.8-1.4,5.8-2.5,8.8-3.6c1.8-0.7,3.8-1.2,5.6-2.1
		c4.2-2.3,5.7-6.4,4.2-11c-0.4-1.3-1.1-2.5-1.7-3.7c-2.2-3.9-2.1-6.7,0.8-10.1c0.9-1.1,1-1.8,0.1-2.8c-1.6-1.8-3.1-3.7-4.5-5.6
		c-0.9-1.2-1.5-1.3-2.7-0.3c-4,3.3-6.9,3.1-11-0.4c-0.4-0.3-1.6-0.3-2.1,0c-4.2,3.7-6.6,3.8-11.2,0.3c-1-0.8-1.6-0.7-2.3,0.3
		c-1.6,2-3.3,3.9-4.8,6c-0.4,0.5-0.3,1.8,0.1,2.4c2.9,4,3.1,6.3,0.7,10.8C606.1,299.6,605.5,301.8,605,303z"/>
	<path d="M447.2,192.9c1.2,0,2.1,0,3,0c12.8,0,25.6-0.1,38.4,0.1c2.4,0,2.9-0.7,2.9-3c-0.1-36,0-71.9,0-107.9c0-3.4,0-3.4,3.5-3.4
		c32.1,0,64.1,0,96.2,0c1.1,0,2.2-0.5,3.4-0.8c0-0.3,0-0.5,0-0.8c1.5,0.7,2.9,1.5,4.8,2.4c-1.8,0.9-3.2,1.6-4,2
		c-1.5-0.5-2.6-1.2-3.7-1.2c-32.1-0.1-64.1,0-96.2,0c-0.7,0-1.4,0.1-2.3,0.1c0,37.6,0,75.1,0,112.8c0.9,0,1.6,0.1,2.3,0.1
		c32,0,63.9,0,95.9,0c0.9,0,1.9-0.5,2.8-0.7c0-0.3,0-0.6,0-0.9c1.5,0.7,2.9,1.5,4.9,2.5c-1.8,1-3.3,1.7-4.2,2.2
		c-1.2-0.6-2-1.3-2.7-1.3c-32.5-0.1-65.1-0.1-97.6-0.1c-0.3,0-0.6,0.1-1,0.2c0,33.9,0,67.8,0,101.8c1,0.1,2,0.2,2.9,0.2
		c32.9,0,65.7,0,98.6,0c1.1,0,2.3-0.5,3.4-0.8c0-0.3,0-0.6,0-0.9c1.5,0.7,2.9,1.5,4.8,2.4c-1.8,0.9-3.2,1.6-4.6,2.4
		c0-0.2,0-0.4,0-0.7c-1.2-0.3-2.4-0.9-3.6-0.9c-33.3-0.1-66.7,0-100,0c-3.4,0-3.4,0-3.4-3.4c0-32.3,0-64.6,0-96.9c0-1,0-2,0-3.2
		c-14.8,0-29.4,0-44.3,0c0,1.2,0,2.2,0,3.2c0,35.5,0,71,0,106.5c0,3.3,0,3.3-3.4,3.3c-116.9,0-233.7,0-350.6,0c-3.5,0-3.5,0-3.5-3.6
		c0-14.4,0-28.8,0-43.2c0-0.9,0.4-1.7,0.6-2.6c0.3,0.1,0.7,0.1,1,0.2c0,15.7,0,31.3,0,47.2c118.2,0,236,0,354,0
		c0-74.8,0-149.4,0-224.3c-117.9,0-235.7,0-353.9,0c0,25.8,0,51.6,0,77.3c-0.2,0.1-0.4,0.2-0.6,0.3c-0.4-0.3-0.9-0.6-1-1
		c-0.2-0.6-0.1-1.3-0.1-1.9c0-24.5,0-48.9,0-73.4c0-3.2,0-3.2,3.1-3.2c117.1,0,234.2,0,351.3,0c3.1,0,3.1,0,3.1,3.1
		c0,35.4,0,70.8,0,106.2C447.2,190.4,447.2,191.5,447.2,192.9z"/>
	<path d="M178.1,200c37.5,0,74.8,0,112.2,0c0-21.7,0-43.1,0-64.9c-0.7,0-1.5-0.1-2.3-0.1c-5.4,0-10.9-0.1-16.3,0
		c-1,0-1.9,0.6-3.6,1.2c-0.7-0.4-2.1-1.1-4-2c1.8-0.9,3.2-1.7,4.6-2.5c0,0.2,0,0.4,0,0.6c1.1,0.3,2.2,0.9,3.3,1
		c12.3,0.1,24.6,0.1,36.9,0c1,0,2-0.6,3.1-1c0-0.2,0-0.4,0-0.6c1.4,0.7,2.8,1.4,4.8,2.4c-1.8,0.9-3.2,1.6-4.2,2.1
		c-1.3-0.5-2.2-1.2-3.1-1.2c-5-0.1-10.1,0-15.1-0.1c-1.7,0-2.2,0.7-2.1,2.3c0,20.1,0.1,40.3,0,60.4c0,2.2,1,2.4,2.7,2.4
		c35.5,0,71,0,106.4,0c3.9,0,3.6-0.5,3.6,3.6c0,22.5,0,44.9,0,67.4c0,3.1,0,3.1-3.2,3.1c-73.6,0-147.2,0-220.8,0
		c-3.1,0-3.1,0-3.1-3.2c0-22.5,0-45.1,0-67.6C177.9,202.2,178,201.2,178.1,200z M403.2,201.8c-74.6,0-148.9,0-223.5,0
		c0,0.9-0.1,1.7-0.1,2.5c0,21.8,0,43.6-0.1,65.4c0,2.4,0.9,2.7,2.9,2.7c72.7,0,145.4,0,218.1,0c0.8,0,1.7,0,2.6,0
		C403.2,248.7,403.2,225.4,403.2,201.8z"/>
	<path d="M258.2,134.4c0,3.7-0.1,7.3,0,11c0.1,1.8-0.6,3-2.3,3.5c-6.2,1.9-12.4,2-18.6,0c-1.7-0.5-2.5-1.8-2.5-3.6
		c0-7.7,0-15.3-0.2-23c0-1.8,0.7-2.9,2.3-3.5c6.3-2.1,12.6-2.1,19,0c1.7,0.6,2.5,1.8,2.4,3.7c0,4,0,8,0,12
		C258.4,134.4,258.3,134.4,258.2,134.4z M236.6,140.2c0,1.8-0.2,3.4,0.1,5c0.2,0.9,1,2.1,1.8,2.3c5.4,1.6,10.9,1.6,16.3,0
		c0.7-0.2,1.6-1,1.7-1.6c0.2-1.8,0.1-3.6,0.1-5.7C249.8,142.2,243.3,142.2,236.6,140.2z M236.8,131.5c0,1.8,0.1,3.3,0,4.8
		s0.6,2.2,1.9,2.6c5.3,1.4,10.7,1.5,16-0.1c0.7-0.2,1.6-1,1.7-1.6c0.2-1.8,0.1-3.6,0.1-5.6C249.8,133.5,243.6,133.6,236.8,131.5z
		 M256.1,124c-6.4,1.9-12.6,1.8-19,0c-0.1,0.9-0.1,1.6-0.1,2.2c-0.1,3.7,0.2,4.2,3.8,4.6c3.5,0.4,7,0.5,10.5,0.1
		c5.3-0.5,5.7-1.2,5-6.5C256.3,124.4,256.2,124.3,256.1,124z M237.1,121.3c4.3,2.7,15.5,2.6,18.8,0
		C252.4,118.6,241.5,118.5,237.1,121.3z"/>
	<path d="M345.5,134.4c0,3.7-0.1,7.5,0,11.2c0,1.7-0.7,2.8-2.2,3.3c-6.3,2-12.5,2-18.8,0c-1.6-0.5-2.3-1.8-2.3-3.5
		c0-7.5,0-15-0.2-22.5c0-1.9,0.8-3.1,2.5-3.6c6.2-2,12.5-2,18.7,0c1.8,0.6,2.5,2,2.5,3.9c-0.1,3.7,0,7.5,0,11.2
		C345.7,134.4,345.6,134.4,345.5,134.4z M324,132c0,1.8,0.1,3.3,0,4.8s0.6,2.2,1.9,2.6c5.3,1.4,10.7,1.5,16-0.1
		c0.7-0.2,1.6-1,1.7-1.6c0.2-1.8,0.1-3.6,0.1-5.6C337.1,134,330.9,134.1,324,132z M343.8,140.7c-6.9,2.1-13.3,1.9-19.9,0
		c0,1.7-0.2,3.1,0.1,4.3c0.2,0.9,0.9,2.2,1.7,2.4c5.5,1.7,11,1.6,16.5,0c0.7-0.2,1.5-1.1,1.6-1.7C344,144.2,343.8,142.6,343.8,140.7
		z M324.2,124.4c0,1.5-0.2,2.8,0.1,3.9c0.2,0.9,0.9,2.2,1.7,2.4c5.3,1.6,10.7,1.6,16,0c0.7-0.2,1.5-1,1.6-1.7
		c0.2-1.4,0.1-2.9,0.1-4.6C337.1,126.3,330.9,126.4,324.2,124.4z M324.4,121.8c4.7,2.6,15.8,2.5,18.8-0.2
		C339.3,119,328.4,119,324.4,121.8z"/>
	<path d="M605,303c0.5-1.3,1.1-3.5,2.2-5.5c2.4-4.4,2.3-6.8-0.7-10.8c-0.4-0.5-0.4-1.8-0.1-2.4c1.5-2.1,3.2-4,4.8-6
		c0.7-0.9,1.3-1.1,2.3-0.3c4.6,3.5,7,3.4,11.2-0.3c0.4-0.4,1.6-0.4,2.1,0c4.1,3.5,7,3.8,11,0.4c1.2-1,1.8-0.9,2.7,0.3
		c1.4,1.9,2.9,3.8,4.5,5.6c0.9,1.1,0.8,1.8-0.1,2.8c-2.9,3.4-3,6.2-0.8,10.1c0.7,1.2,1.3,2.4,1.7,3.7c1.5,4.6,0,8.7-4.2,11
		c-1.7,0.9-3.7,1.4-5.6,2.1c-2.9,1.2-5.9,2.2-8.8,3.6c-1.2,0.6-1.8,0.5-3,0c-2.9-1.4-5.9-2.4-8.8-3.6c-2.4-1-4.9-1.9-7.1-3.2
		C606.1,309.2,605.2,306.8,605,303z M639,279.5c-4.6,3.6-9,3.8-13.2-0.2c-5.2,3.9-7.1,3.9-13.5,0.3c-1.6,1.9-3.1,3.9-4.6,5.8
		c3.7,5.5,3.8,7.6,0.6,13.4c-3.1,5.7-1.5,10.3,4.6,12.6c0.8,0.3,1.7,0.4,2.5,0.7c3,1.1,6.1,2.3,9.1,3.5c0.5,0.2,1.2,0.6,1.7,0.4
		c4.3-1.5,8.5-3.1,12.7-4.8c5.8-2.3,7.6-6.9,4.3-12.3c-2.9-4.8-3.1-9.1,0.7-13.5C642.3,283.5,640.7,281.5,639,279.5z"/>
	<path class="st0" d="M403.2,201.8c0,23.6,0,46.9,0,70.6c-1,0-1.8,0-2.6,0c-72.7,0-145.4,0-218.1,0c-2,0-2.9-0.3-2.9-2.7
		c0.1-21.8,0.1-43.6,0.1-65.4c0-0.8,0.1-1.6,0.1-2.5C254.2,201.8,328.6,201.8,403.2,201.8z M195.4,216.4c-0.1,0.6-0.2,1-0.2,1.4
		c0,10.3,0,20.6,0,30.9c0,1.7,0.7,2,2.2,2c12.1,0,24.3,0,36.4,0c0.5,0,1.1-0.1,2-0.2c0-5.3,0-10.6,0-15.9c3.6,0,6.8,0,10.5,0
		c-1.9,2-0.6,4.5-2.4,6.8c-1.2,1.5-0.2,4.7-0.2,7.5c4.2,0,8.1,0,11.8,0c1.7-5.2-1.2-9.5-1.7-14.2c3.4,0,6.8,0,10.5,0
		c0,4.6,0.1,9,0,13.4c-0.1,2,0.5,2.7,2.7,2.7c12-0.1,24-0.1,36-0.1c0.7,0,1.4-0.1,2.4-0.1c0-1,0-1.8,0-2.7c0-3.8,0-7.7,0.1-11.5
		c0-0.7,0.7-1.9,1.1-1.9c2.6-0.2,5.2-0.1,8.3-0.1c-2.4,2-1,4.8-2.8,7c-1.2,1.5-0.2,4.8-0.2,7.5c4.3,0,8.2,0,12.2,0
		c0-2.9,1-6.2-0.2-7.8c-1.8-2.3-0.2-5-2.8-6.9c4.3,0,7.9,0,11.9,0c0,4.6,0.1,8.9,0,13.3c-0.1,2,0.4,2.8,2.6,2.7
		c12-0.1,24-0.1,36-0.1c0.8,0,1.5-0.1,2.3-0.1c0-11.5,0-22.8,0-34.1c-13.6,0-27.1,0-40.8,0c0,5.4,0,10.6,0,16
		c-0.9,0.1-1.5,0.2-2.1,0.2c-7.5,0.1-15,0.2-22.5,0.4c-2.3,0.1-3.1-0.5-3-2.9c0.2-4.5,0.1-9.1,0.1-13.7c-13.8,0-27.2,0-41.1,0
		c0,5.6,0,11,0,16.4c-9.7,0-19,0-28.5,0c0-5.4,0-10.7,0-16C222.1,216.4,208.8,216.4,195.4,216.4z"/>
	<path class="st0" d="M236.6,140.2c6.7,2,13.1,2,19.9,0c0,2,0.1,3.9-0.1,5.7c-0.1,0.6-1,1.4-1.7,1.6c-5.4,1.5-10.9,1.6-16.3,0
		c-0.8-0.2-1.6-1.5-1.8-2.3C236.4,143.6,236.6,142,236.6,140.2z"/>
	<path class="st0" d="M236.8,131.5c6.8,2,13.1,1.9,19.6,0.1c0,2,0.1,3.8-0.1,5.6c-0.1,0.6-1,1.4-1.7,1.6c-5.3,1.5-10.7,1.5-16,0.1
		c-1.3-0.4-2-1.2-1.9-2.6C236.8,134.9,236.8,133.4,236.8,131.5z"/>
	<path class="st0" d="M256.1,124c0.1,0.3,0.2,0.4,0.2,0.4c0.6,5.3,0.2,6-5,6.5c-3.5,0.3-7,0.2-10.5-0.1c-3.6-0.4-3.9-0.9-3.8-4.6
		c0-0.6,0.1-1.2,0.1-2.2C243.4,125.8,249.7,125.9,256.1,124z"/>
	<path class="st0" d="M237.1,121.3c4.4-2.8,15.3-2.7,18.8,0C252.6,123.9,241.4,124,237.1,121.3z"/>
	<path class="st0" d="M324,132c6.8,2,13.1,1.9,19.6,0.1c0,2,0.1,3.8-0.1,5.6c-0.1,0.6-1,1.4-1.7,1.6c-5.3,1.5-10.7,1.5-16,0.1
		c-1.3-0.4-2-1.2-1.9-2.6C324.1,135.3,324,133.9,324,132z"/>
	<path class="st0" d="M343.8,140.7c0,2,0.2,3.6-0.1,5.1c-0.1,0.7-0.9,1.5-1.6,1.7c-5.5,1.6-11,1.6-16.5,0c-0.7-0.2-1.5-1.5-1.7-2.4
		c-0.3-1.3-0.1-2.7-0.1-4.3C330.5,142.6,337,142.7,343.8,140.7z"/>
	<path class="st0" d="M324.2,124.4c6.7,1.9,12.9,1.9,19.5,0c0,1.7,0.2,3.2-0.1,4.6c-0.1,0.7-1,1.5-1.6,1.7c-5.3,1.6-10.7,1.6-16,0
		c-0.8-0.2-1.4-1.5-1.7-2.4C324,127.2,324.2,125.9,324.2,124.4z"/>
	<path class="st0" d="M324.4,121.8c4-2.8,14.9-2.8,18.8-0.2C340.2,124.3,329.1,124.5,324.4,121.8z"/>
	<path class="st0" d="M639,279.5c1.6,2,3.2,4,4.9,6c-3.8,4.4-3.5,8.7-0.7,13.5c3.3,5.4,1.5,10-4.3,12.3c-4.2,1.7-8.4,3.3-12.7,4.8
		c-0.5,0.2-1.1-0.2-1.7-0.4c-3-1.2-6.1-2.3-9.1-3.5c-0.8-0.3-1.7-0.4-2.5-0.7c-6.1-2.3-7.8-6.8-4.6-12.6c3.2-5.9,3.1-7.9-0.6-13.4
		c1.5-1.9,3.1-3.9,4.6-5.8c6.4,3.6,8.3,3.6,13.5-0.3C630,283.4,634.4,283.1,639,279.5z M619.6,292.5c-2.8-0.5-3.2,1.2-3.1,3.5
		c0.2,3.4,0.1,6.9,0,10.3c0,1.4,0.4,2,1.9,2c4.8-0.1,9.6-0.1,14.3,0c1.5,0,1.9-0.6,1.9-2c-0.1-3.3,0-6.5,0-9.8c0-3.5,0-3.5-3.1-4.4
		c-0.8-5.7-2.3-7.7-5.8-7.8C622.2,284.3,620.8,286.2,619.6,292.5z"/>
	<path d="M195.4,216.4c13.5,0,26.7,0,40.2,0c0,5.3,0,10.6,0,16c9.6,0,18.9,0,28.5,0c0-5.4,0-10.9,0-16.4c13.8,0,27.3,0,41.1,0
		c0,4.6,0.1,9.2-0.1,13.7c-0.1,2.4,0.7,3,3,2.9c7.5-0.3,15-0.3,22.5-0.4c0.6,0,1.2-0.1,2.1-0.2c0-5.3,0-10.6,0-16
		c13.7,0,27.2,0,40.8,0c0,11.3,0,22.5,0,34.1c-0.7,0-1.5,0.1-2.3,0.1c-12,0-24-0.1-36,0.1c-2.2,0-2.7-0.7-2.6-2.7
		c0.1-4.4,0-8.8,0-13.3c-4,0-7.6,0-11.9,0c2.6,1.9,0.9,4.6,2.8,6.9c1.2,1.5,0.2,4.9,0.2,7.8c-4,0-7.9,0-12.2,0c0-2.6-1-5.9,0.2-7.5
		c1.8-2.2,0.4-5,2.8-7c-3.2,0-5.8-0.1-8.3,0.1c-0.4,0-1.1,1.2-1.1,1.9c-0.1,3.8-0.1,7.7-0.1,11.5c0,0.9,0,1.7,0,2.7
		c-1,0.1-1.7,0.1-2.4,0.1c-12,0-24-0.1-36,0.1c-2.2,0-2.7-0.7-2.7-2.7c0.1-4.4,0-8.8,0-13.4c-3.6,0-7,0-10.5,0
		c0.5,4.6,3.4,8.9,1.7,14.2c-3.7,0-7.6,0-11.8,0c0-2.7-1-5.9,0.2-7.5c1.7-2.2,0.5-4.7,2.4-6.8c-3.7,0-6.9,0-10.5,0
		c0,5.4,0,10.6,0,15.9c-0.9,0.1-1.4,0.2-2,0.2c-12.1,0-24.3,0-36.4,0c-1.5,0-2.2-0.3-2.2-2c0.1-10.3,0-20.6,0-30.9
		C195.2,217.3,195.3,217,195.4,216.4z M303.3,248.6c0-10.4,0-20.6,0-30.9c-12.4,0-24.7,0-37,0c-0.1,0.5-0.2,0.9-0.2,1.3
		c0,9.3,0,18.7,0,28c0,1.8,1,1.8,2.3,1.8c11,0,22,0,33,0C301.9,248.8,302.5,248.7,303.3,248.6z M371.4,218.2c-12.2,0-24,0-36.1,0
		c-0.1,0.9-0.1,1.6-0.2,2.4c0,8.2,0.1,16.4-0.1,24.7c0,2.2,0.7,2.6,2.8,2.6c10.4-0.1,20.7,0,31.1,0c0.8,0,1.5-0.1,2.4-0.1
		C371.4,237.8,371.4,228.1,371.4,218.2z M233.2,218.7c-12,0-23.8,0-35.6,0c-0.1,0.5-0.2,0.8-0.2,1.1c0,8.9,0,17.7-0.1,26.6
		c0,1.7,0.8,1.9,2.2,1.9c10.5,0,21.1,0,31.6,0c0.6,0,1.2-0.1,2-0.2C233.2,238.3,233.2,228.6,233.2,218.7z M321,239.9
		c0.2-2,0.6-4-1.5-4.9c-1-0.4-2.6-0.3-3.5,0.2c-1.7,1-1.6,2.9-1.2,4.7C316.8,239.9,318.8,239.9,321,239.9z M252.9,239.9
		c0.3-2,0.5-4.1-1.7-5c-1-0.4-2.6-0.2-3.5,0.4c-1.6,1.1-1.5,2.9-1,4.6C248.8,239.9,250.7,239.9,252.9,239.9z M249.2,246.8
		c0.3,0,0.6,0,0.9,0c0.2-1.1,0.3-2.2,0.5-3.2c-0.6,0-1.1,0-1.7-0.1C249,244.6,249.1,245.7,249.2,246.8z M317.3,246.8
		c0.4,0,0.8,0,1.1,0c0.1-1.1,0.1-2.2,0.2-3.3c-0.5,0-1,0-1.5,0C317.2,244.6,317.2,245.7,317.3,246.8z"/>
	<path d="M619.6,292.5c1.1-6.3,2.6-8.2,6.2-8.1c3.5,0.1,5,2.1,5.8,7.8c3.1,0.9,3.1,0.9,3.1,4.4c0,3.3,0,6.5,0,9.8c0,1.4-0.4,2-1.9,2
		c-4.8-0.1-9.6-0.1-14.3,0c-1.5,0-1.9-0.6-1.9-2c0.1-3.4,0.1-6.9,0-10.3C616.5,293.7,616.8,292.1,619.6,292.5z M633.2,294.4
		c-5.1,0-9.9,0-14.8,0c0,4.2,0,8.2,0,12.4c4.5,0,8.9,0.1,13.3-0.1c0.5,0,1.4-1,1.4-1.5C633.3,301.7,633.2,298.2,633.2,294.4z
		 M621.8,292.4c2.7,0,5.4,0,8,0c0.2-2.4,0.3-4.7-2-5.6c-1.3-0.5-3.2-0.5-4.5,0.1C621.2,288,621.5,290.3,621.8,292.4z"/>
	<path class="st0" d="M303.3,248.6c-0.7,0.1-1.3,0.2-1.9,0.2c-11,0-22,0-33,0c-1.3,0-2.3-0.1-2.3-1.8c0.1-9.3,0-18.7,0-28
		c0-0.4,0.1-0.8,0.2-1.3c12.3,0,24.6,0,37,0C303.3,228,303.3,238.2,303.3,248.6z"/>
	<path class="st0" d="M371.4,218.2c0,9.9,0,19.6,0,29.5c-0.9,0.1-1.7,0.1-2.4,0.1c-10.4,0-20.7,0-31.1,0c-2,0-2.8-0.4-2.8-2.6
		c0.1-8.2,0-16.4,0.1-24.7c0-0.8,0.1-1.6,0.2-2.4C347.4,218.2,359.2,218.2,371.4,218.2z"/>
	<path class="st0" d="M233.2,218.7c0,9.8,0,19.5,0,29.4c-0.7,0.1-1.4,0.2-2,0.2c-10.5,0-21.1,0-31.6,0c-1.4,0-2.2-0.2-2.2-1.9
		c0.1-8.9,0-17.7,0.1-26.6c0-0.3,0.1-0.6,0.2-1.1C209.5,218.7,221.2,218.7,233.2,218.7z"/>
	<path class="st0" d="M321,239.9c-2.2,0-4.1,0-6.2,0c-0.4-1.8-0.6-3.7,1.2-4.7c0.9-0.5,2.5-0.6,3.5-0.2
		C321.5,235.9,321.2,238,321,239.9z"/>
	<path class="st0" d="M252.9,239.9c-2.2,0-4.1,0-6.1,0c-0.5-1.7-0.6-3.5,1-4.6c0.9-0.6,2.5-0.8,3.5-0.4
		C253.4,235.9,253.1,237.9,252.9,239.9z"/>
	<path class="st0" d="M249.2,246.8c-0.1-1.1-0.2-2.2-0.3-3.3c0.6,0,1.1,0,1.7,0.1c-0.2,1.1-0.3,2.2-0.5,3.2
		C249.8,246.8,249.5,246.8,249.2,246.8z"/>
	<path class="st0" d="M317.3,246.8c-0.1-1.1-0.1-2.2-0.2-3.3c0.5,0,1,0,1.5,0c-0.1,1.1-0.1,2.2-0.2,3.3
		C318,246.8,317.7,246.8,317.3,246.8z"/>
	<path class="st0" d="M633.2,294.4c0,3.8,0.1,7.3-0.1,10.8c0,0.5-0.9,1.5-1.4,1.5c-4.4,0.1-8.7,0.1-13.3,0.1c0-4.2,0-8.2,0-12.4
		C623.3,294.4,628.1,294.4,633.2,294.4z M628.8,298.7c-0.8-0.7-1.5-1.9-2.4-2.1c-0.8-0.2-2.4,0.3-2.8,1c-0.5,0.8-0.3,2.2-0.1,3.2
		c0.3,1.1,0.9,2.2,1.5,3.2c0.2,0.3,0.6,0.6,0.9,0.8c0.2-0.3,0.5-0.5,0.6-0.8c0.5-1.1,1-2.1,1.5-3.2
		C628.2,300.3,628.4,299.7,628.8,298.7z"/>
	<path class="st0" d="M621.8,292.4c-0.3-2.1-0.6-4.4,1.6-5.5c1.2-0.6,3.2-0.7,4.5-0.1c2.3,0.9,2.2,3.3,2,5.6
		C627.2,292.4,624.5,292.4,621.8,292.4z"/>
	<path d="M628.8,298.7c-0.4,1-0.6,1.6-0.8,2.2c-0.5,1.1-1,2.2-1.5,3.2c-0.1,0.3-0.4,0.6-0.6,0.8c-0.3-0.3-0.7-0.5-0.9-0.8
		c-0.5-1-1.2-2.1-1.5-3.2c-0.2-1-0.4-2.4,0.1-3.2c0.4-0.7,2-1.2,2.8-1C627.3,296.8,628,297.9,628.8,298.7z"/>
</g>
<g id="Reference">
	<rect id="Blue_Light_BG" x="53.1" y="156.3" class="st1" width="75" height="75"/>
	<g id="Product_Icon">
		<path class="st0" d="M81.6,183.8c-8.9,0-15.5-2.8-15.5-6.5s6.7-6.5,15.5-6.5s15.5,2.8,15.5,6.5C97.2,181,90.5,183.8,81.6,183.8z
			 M81.6,172.3c-8.2,0-14,2.6-14,5s5.8,5,14,5s14-2.6,14-5S89.9,172.3,81.6,172.3z"/>
		<rect x="95.7" y="177.3" class="st0" width="1.5" height="11.1"/>
		<path class="st0" d="M81.6,216.7c-8.9,0-15.6-2.8-15.6-6.5v-33h1.5v33c0,2.4,5.8,5,14,5s14-2.6,14-5v-7H97v7
			C97.2,213.9,90.5,216.7,81.6,216.7z"/>
		<path class="st0" d="M75.2,194.8c-5.6-1.1-9-3.3-9-6h1.5c0,1.8,3.1,3.6,7.8,4.4L75.2,194.8z"/>
		<path class="st0" d="M81.7,206.7c-8.8,0-15.5-2.8-15.5-6.5h1.5c0,2.4,5.7,5,14,5c6.6,0,10.1-1.6,10.2-1.6l0.6,1.4
			C92.3,205,88.7,206.7,81.7,206.7z"/>
		<path class="st0" d="M84.9,199.3h-3.4c-1,0-1.8-0.8-1.8-1.8v-3.4c0-1,0.8-1.8,1.7-1.8l0,0h3.4c1,0,1.8,0.8,1.8,1.8v3.4
			C86.7,198.4,85.9,199.2,84.9,199.3L84.9,199.3z M81.5,193.9c-0.1,0-0.3,0.1-0.2,0.3v3.4c0,0.1,0.1,0.2,0.2,0.2h3.4
			c0.1,0,0.2-0.1,0.2-0.2v-3.4c0-0.1-0.1-0.3-0.2-0.3H81.5z"/>
		<path class="st0" d="M97.8,199.3h-3.4c-1,0-1.8-0.8-1.8-1.8v-3.4c0-1,0.8-1.8,1.7-1.8l0,0h3.4c1,0,1.8,0.8,1.8,1.8v3.4
			C99.6,198.4,98.8,199.2,97.8,199.3L97.8,199.3z M94.4,193.9c-0.1,0-0.3,0.1-0.2,0.3v3.4c0,0.1,0.1,0.2,0.2,0.2h3.4
			c0.1,0,0.2-0.1,0.2-0.2v-3.4c0-0.1-0.1-0.3-0.2-0.3H94.4z"/>
		<path class="st0" d="M110.6,199.3h-3.4c-1,0-1.8-0.8-1.8-1.8v-3.4c0-1,0.8-1.8,1.7-1.8l0,0h3.4c1,0,1.8,0.8,1.8,1.8v3.4
			C112.5,198.4,111.7,199.2,110.6,199.3C110.7,199.3,110.7,199.3,110.6,199.3z M107.3,193.9c-0.1,0-0.3,0.1-0.3,0.3v3.4
			c0,0.1,0.1,0.3,0.3,0.2h3.4c0.1,0,0.3-0.1,0.3-0.2v-3.4c0-0.1-0.1-0.3-0.3-0.3H107.3z"/>
		<path class="st0" d="M113.5,201.8h-9.1c-0.9,0-1.5-0.7-1.5-1.5l0,0v-2.4h-0.8v2.4c0,0.8-0.7,1.5-1.5,1.5h-9.1
			c-0.8,0-1.5-0.7-1.5-1.5v-2.4h-0.8v2.4c0,0.8-0.7,1.5-1.5,1.5h-9.1c-0.8,0-1.5-0.7-1.5-1.5v-9c0-0.8,0.7-1.5,1.5-1.5h9.1
			c0.8,0,1.5,0.7,1.5,1.5v3H90v-3c0-0.8,0.7-1.5,1.5-1.5h9.1c0.8,0,1.5,0.7,1.5,1.5l0,0v3h0.8v-3c0-0.8,0.7-1.5,1.5-1.5h9.1
			c0.8,0,1.5,0.6,1.6,1.5l0,0v9C115.1,201.1,114.4,201.8,113.5,201.8C113.6,201.8,113.5,201.8,113.5,201.8z M104.4,196.4v3.9h9.1v-9
			h-9.1v4.5h-3.8v-4.5h-9.1v4.5h-3.9v-4.5h-9.1v9h9.1v-3.9h3.9v4h9.1v-4H104.4z"/>
	</g>
</g>
<g id="Reference_1_">
	<rect id="Green_Light_BG" x="597.9" y="47.7" class="st2" width="61.5" height="61.5"/>
	<g id="Product_Icon_1_">
		<path class="st0" d="M648.2,80.5c-0.2-1.3-1.7-2.2-2.7-2.8c-0.3-0.2-1.2-0.5-1.3-0.8c0-0.2,0-0.4,0.1-0.6l0.8-5.9
			c0.2-1.7,0.5-3.5,0.7-5.2c0.2-1.6-0.5-2.7-1.8-3.5c-2.6-1.8-6.1-2.6-9.2-3.1c-3.9-0.6-7.9-0.8-11.8-0.4c-3.5,0.3-7,1.1-10.3,2.5
			c-1.8,0.8-4,2.1-3.8,4.3c0.8,6.7,1.8,13.3,2.7,19.9c0.4,3,0.8,6.1,1.2,9.1c0.1,1.2,0.9,2.2,2,2.7c2.5,1.4,5.7,1.8,8.5,2
			c3.8,0.3,7.6,0.2,11.3-0.5c2.4-0.4,6.8-1.1,7.1-4.1c0.5-3.7,1-7.3,1.5-11l0.2-1.1C644.9,82.4,648.7,83.1,648.2,80.5z M627.4,59.6
			c4.9,0,10.5,0.6,15,3c0.7,0.4,2.3,1.2,1.8,2.2c-0.5,1-2,1.5-2.9,1.9c-1.3,0.5-2.6,0.8-4,1.1c-5.9,1.2-11.9,1.3-17.8,0.4
			c-2.7-0.3-5.3-1-7.6-2.2c-0.6-0.3-1.6-0.9-1.3-1.7c0.2-0.4,0.6-0.8,1-1c1.8-1.2,3.8-2,5.9-2.4C620.8,59.9,624.1,59.5,627.4,59.6z
			 M640.3,94.1c-0.1,1-1.7,1.4-2.5,1.7c-1.6,0.5-3.2,0.9-4.8,1.1c-3.6,0.5-7.3,0.5-11,0c-2.3-0.2-4.5-0.8-6.6-1.8
			c-0.6-0.2-1-0.8-1-1.4c-0.8-6.5-1.8-13-2.6-19.5l-1-7c1.9,1,3.9,1.7,6,2.1c2.2,0.5,4.5,0.8,6.8,0.9c4.5,0.3,9,0.1,13.4-0.7
			c2.4-0.3,4.6-1.1,6.7-2.2L642,80.2c-4.2-1.4-8.2-3-12.1-4.9c-0.2-0.1-0.3-0.1-0.5-0.2c-0.2-0.2-0.2-0.1-0.3-0.3
			c-0.2-0.5-0.3-0.8-0.7-1.2c-0.8-0.6-2-0.5-2.6,0.3s-0.5,2,0.3,2.6c0.4,0.3,0.8,0.4,1.3,0.4c0.3,0,0.6-0.1,0.8-0.2
			c0.3-0.1,0.3-0.1,0.7,0.1c4,1.9,8.1,3.6,12.3,5c0.6,0.2,0.6,0,0.6,0.5c0,0.4-0.1,0.8-0.2,1.2l-0.5,3.9L640.3,94.1z M627.6,74.7
			c0,0.2-0.3,0.2-0.4,0.1C627.2,74.6,627.6,74.4,627.6,74.7z M643.8,80.5l0.2-1.8c0.8,0.5,2.2,1.2,2.6,2.1
			C645.8,81.1,644.5,80.7,643.8,80.5z"/>
	</g>
</g>
<g id="Working">
	
		<linearGradient id="Purple_Gradient_1_" gradientUnits="userSpaceOnUse" x1="-1859.9487" y1="1451.1512" x2="-1770.6895" y2="1540.4106" gradientTransform="matrix(0 -1 1 0 -868 -1623)">
		<stop  offset="0" style="stop-color:#4D27A8"/>
		<stop  offset="1" style="stop-color:#A166FF"/>
	</linearGradient>
	<rect id="Purple_Gradient" x="596.2" y="160.8" class="st3" width="63.1" height="63.1"/>
	<g id="Icon_Test">
		<path class="st0" d="M648.8,188.1v1.7h-7.4c-2.5,0-4.9-0.1-7.4-0.4l0,0c-15.8-1.7-27.3-8.6-27.3-17.1c0-0.4,0-0.7,0.1-1.1h1.7
			c-0.1,0.4-0.1,0.7-0.1,1.1c0,8.7,14.8,15.8,33,15.8H648.8z"/>
		<path class="st0" d="M648.8,191.5v1.7H647c-0.6-0.6-1.2-1.2-1.8-1.7H648.8z"/>
		<path class="st0" d="M630.1,191.2c-0.3,0.2-0.5,0.4-0.8,0.6c-0.4,0.3-0.7,0.6-1.1,1c-0.3,0.3-0.5,0.6-0.8,0.8
			c-10.7,1-18.1,3.3-20.7,6.7v-2.4c3.7-3.1,10.5-4.7,17.2-5.6c-6.7-0.8-13.5-2.5-17.2-5.6v-2.4C609.6,188,618.1,190.5,630.1,191.2z"
			/>
		<path class="st0" d="M648.8,191.5v1.7H647c-0.6-0.6-1.2-1.2-1.8-1.7H648.8z"/>
		<path class="st0" d="M648.8,184.8v1.7h-3.5c-16.8,0-29.1-5.7-29.1-13.6c0,0,0-1,0-1.5h1.7c0,0.4,0,1.2,0,1.5
			c0,6.7,11.8,11.9,27.4,11.9L648.8,184.8L648.8,184.8z"/>
		<path class="st0" d="M625.5,196.8c-0.3,0.6-0.5,1.3-0.7,1.9c-9.8,2.7-16.5,7.8-16.5,13.6c0,0.3,0,0.7,0.1,1h-1.7
			c0-0.3-0.1-0.7-0.1-1C606.8,205.5,614.3,199.6,625.5,196.8z"/>
		<path class="st0" d="M617.9,211.8c0,0.3,0,1.3,0,1.6h-1.7c0-0.6,0-1.6,0-1.6c0-3.9,3-7.3,8.2-9.7c0,0.6,0,1.2,0.1,1.8
			C620.4,205.9,617.9,208.7,617.9,211.8z"/>
		<path class="st0" d="M637.5,190.7c-6.3,0-11.4,5.1-11.4,11.4s5.1,11.4,11.4,11.4c6.3,0,11.4-5.1,11.4-11.4
			C648.8,195.8,643.8,190.7,637.5,190.7z M646.7,205c-0.3,0.9-0.7,1.8-1.2,2.5h-4.2v1.7h2.7c-3.7,3.4-9.3,3.4-13,0h1v-1.7h-2.5
			c-0.5-0.8-1-1.6-1.2-2.5h3.8v-1.7H628c-0.1-0.8-0.1-1.7,0-2.5h5v-1.7h-4.6c0.3-0.9,0.7-1.8,1.2-2.5h9.3v-1.7H631
			c3.7-3.4,9.3-3.4,13,0h-2.7c-0.5,0-0.8,0.4-0.8,0.8v4.2c0,0.5,0.4,0.8,0.8,0.8h4.2c0.5,0,0.8-0.4,0.8-0.8v-1.8
			c0.6,1.2,0.8,2.6,0.8,3.9c0,0.4,0,0.8-0.1,1.3h-5.8v1.7H646.7L646.7,205z M644.7,196.6v2.5h-2.5v-2.5H644.7z"/>
		<rect x="634.5" y="199.1" class="st0" width="4.2" height="1.7"/>
		<path class="st0" d="M638.7,209.2h-4.2c-0.5,0-0.8-0.4-0.8-0.8v-4.2c0-0.5,0.4-0.8,0.8-0.8h4.2c0.5,0,0.8,0.4,0.8,0.8v4.2
			C639.6,208.8,639.2,209.2,638.7,209.2z M635.4,207.5h2.5V205h-2.5V207.5z"/>
	</g>
</g>
<rect x="581.2" y="111" class="st4" width="100.5" height="29.3"/>
<text transform="matrix(1 0 0 1 581.6437 121.99)" class="st5 st6">Amazon Simple </text>
<text transform="matrix(1 0 0 1 582.3437 138.79)" class="st5 st6">Storage Service</text>
<rect x="580.9" y="226" class="st4" width="100.5" height="29.3"/>
<text transform="matrix(1 0 0 1 585.4445 235.9596)" class="st5 st6">Amazon Kinesis </text>
<text transform="matrix(1 0 0 1 592.4445 252.7596)" class="st5 st6">Data Streams</text>
<rect x="607.4" y="319" class="st4" width="43.5" height="14.7"/>
<text transform="matrix(1 0 0 1 607.3821 328.9009)" class="st5 st6">Digest</text>
<rect x="41.3" y="233" class="st4" width="111" height="29.3"/>
<text transform="matrix(1 0 0 1 42.158 243.934)" class="st5 st6">Amazon Quantum </text>
<text transform="matrix(1 0 0 1 46.458 259.734)" class="st5 st6">Ledger Database</text>
<rect x="210.1" y="152.9" class="st4" width="87.8" height="12.8"/>
<text transform="matrix(1 0 0 1 210.1191 161.3989)" class="st5 st7">Current State</text>
<rect x="299" y="152.9" class="st4" width="87.8" height="12.8"/>
<text transform="matrix(1 0 0 1 298.9548 161.3989)" class="st5 st7">Indexed History</text>
<rect x="510.1" y="285.1" class="st4" width="64.4" height="14.7"/>
<text transform="matrix(1 0 0 1 510.0939 293.5767)" class="st5 st7">Verification</text>
<rect x="516.1" y="181.1" class="st4" width="43.5" height="14.7"/>
<text transform="matrix(1 0 0 1 516.0939 189.6219)" class="st5 st7">Streams</text>
<rect x="516.1" y="66.7" class="st4" width="43.5" height="13.2"/>
<text transform="matrix(1 0 0 1 516.0939 75.2331)" class="st5 st7">Export</text>
<rect x="253.7" y="258.3" class="st4" width="64.4" height="14.7"/>
<text transform="matrix(1 0 0 1 264.4651 268.2614)" class="st5 st6">Journal</text>
<rect x="193.4" y="222.5" class="st4" width="41.4" height="27.5"/>
<text transform="matrix(1 0 0 1 202.4258 231.5897)" class="st5 st8">Insert </text>
<text transform="matrix(1 0 0 1 204.3258 243.5897)" class="st5 st8">Data</text>
<rect x="263.9" y="223.8" class="st4" width="41.4" height="27.5"/>
<text transform="matrix(1 0 0 1 269.1459 230.8519)" class="st5 st8">Update </text>
<text transform="matrix(1 0 0 1 274.8459 242.8519)" class="st5 st8">Data</text>
<rect x="332.3" y="223.2" class="st4" width="41.4" height="27.5"/>
<text transform="matrix(1 0 0 1 339.3203 230.3239)" class="st5 st8">Delete </text>
<text transform="matrix(1 0 0 1 343.2203 242.3239)" class="st5 st8">Data</text>
<g id="Working_1_">
	<rect x="28" y="33" class="st9" width="35" height="35"/>
	<path class="st0" d="M39.3,49.2c0,0.3,0,0.6,0.1,0.8s0.2,0.5,0.3,0.7c0,0.1,0.1,0.1,0.1,0.2c0,0.1-0.1,0.2-0.2,0.3L39,51.5
		c-0.1,0.1-0.2,0.1-0.2,0.1c-0.1,0-0.2,0-0.3-0.1s-0.2-0.3-0.3-0.4c-0.1-0.2-0.2-0.3-0.3-0.5c-0.7,0.8-1.7,1.3-2.7,1.3
		c-0.7,0-1.4-0.2-1.9-0.7s-0.7-1.1-0.7-1.8s0.3-1.4,0.8-1.9c0.7-0.5,1.5-0.8,2.3-0.7c0.3,0,0.7,0,1,0.1c0.4,0,0.7,0.1,1.1,0.2v-0.7
		c0.1-0.5-0.1-1.1-0.4-1.5c-0.4-0.3-1-0.5-1.5-0.4c-0.3,0-0.7,0-1,0.1s-0.7,0.2-1,0.3L33.6,45h-0.1c-0.1,0-0.2-0.1-0.2-0.3v-0.5
		c0-0.1,0-0.2,0.1-0.3s0.2-0.2,0.3-0.2c0.4-0.2,0.8-0.3,1.2-0.4c0.5-0.1,1-0.2,1.5-0.2c0.9-0.1,1.8,0.2,2.4,0.8
		c0.6,0.6,0.8,1.5,0.8,2.3L39.3,49.2z M35.6,50.6c0.3,0,0.7-0.1,1-0.2c0.3-0.1,0.6-0.3,0.9-0.6c0.2-0.2,0.3-0.4,0.3-0.6
		c0.1-0.3,0.1-0.5,0.1-0.8V48c-0.3-0.1-0.6-0.1-0.9-0.1c-0.3,0-0.6,0-0.9,0c-0.5,0-1,0.1-1.4,0.4c-0.3,0.3-0.5,0.7-0.5,1.1
		c0,0.4,0.1,0.7,0.3,1C34.9,50.5,35.2,50.6,35.6,50.6z M43,51.6c-0.1,0-0.3,0-0.4-0.1c-0.1-0.1-0.2-0.2-0.2-0.4l-2.2-7.2
		c0-0.1-0.1-0.3-0.1-0.4c0-0.1,0.1-0.2,0.2-0.2h0.9c0.1,0,0.3,0,0.4,0.1c0.1,0.1,0.2,0.2,0.2,0.4l1.6,6.2l1.5-6.2
		c0-0.1,0.1-0.3,0.2-0.4c0.1-0.1,0.2-0.1,0.4-0.1h0.8c0.1,0,0.3,0,0.4,0.1c0.1,0.1,0.2,0.2,0.2,0.4l1.4,6.2l1.6-6.2
		c0-0.1,0.1-0.3,0.2-0.4c0.1-0.1,0.2-0.1,0.4-0.1h0.9c0.1,0,0.2,0.1,0.2,0.2l0,0c0,0,0,0.1,0,0.2c0,0,0,0.1-0.1,0.2l-2.3,7.2
		c0,0.1-0.1,0.3-0.2,0.4c-0.1,0.1-0.2,0.1-0.4,0.1h-0.8c-0.1,0-0.3,0-0.4-0.1c-0.1-0.1-0.2-0.2-0.2-0.4l-1.4-6l-1.4,6
		c0,0.1-0.1,0.3-0.2,0.4c-0.1,0.1-0.2,0.1-0.4,0.1H43z M55,51.8c-0.5,0-1-0.1-1.4-0.2c-0.4-0.1-0.7-0.2-1.1-0.4
		c-0.1-0.1-0.2-0.1-0.3-0.3c0-0.1-0.1-0.2-0.1-0.3v-0.5c0-0.2,0.1-0.3,0.2-0.3c0.1,0,0.1,0,0.2,0l0.2,0.1c0.3,0.1,0.7,0.3,1,0.3
		c0.4,0.1,0.7,0.1,1.1,0.1c0.5,0,0.9-0.1,1.4-0.3c0.3-0.2,0.5-0.5,0.5-0.9c0-0.2-0.1-0.5-0.2-0.7c-0.3-0.2-0.6-0.4-0.9-0.5l-1.4-0.4
		c-0.6-0.1-1.1-0.5-1.5-0.9c-0.3-0.4-0.5-0.9-0.5-1.4c0-0.3,0.1-0.7,0.2-1c0.2-0.3,0.4-0.6,0.7-0.8s0.6-0.4,1-0.5s0.8-0.2,1.2-0.2
		c0.2,0,0.4,0,0.6,0l0.6,0.1L57,43l0.4,0.2c0.1,0.1,0.2,0.1,0.3,0.2c0.1,0.1,0.1,0.2,0.1,0.3v0.4c0,0.2-0.1,0.3-0.2,0.3
		c-0.1,0-0.2-0.1-0.4-0.1c-0.6-0.2-1.2-0.4-1.8-0.4c-0.4,0-0.9,0.1-1.2,0.3s-0.5,0.5-0.4,0.8c0,0.2,0.1,0.5,0.3,0.7
		c0.3,0.2,0.6,0.4,1,0.5l1.3,0.4c0.6,0.1,1.1,0.5,1.4,0.9c0.3,0.4,0.4,0.8,0.4,1.3c0,0.4-0.1,0.7-0.2,1.1c-0.2,0.3-0.4,0.6-0.7,0.8
		s-0.6,0.4-1,0.5C55.9,51.8,55.5,51.8,55,51.8L55,51.8z"/>
	<path class="st10" d="M56.8,56.4c-3.3,2.3-7.3,3.5-11.3,3.5c-5.1,0-10.1-1.9-13.9-5.3c-0.3-0.3,0-0.6,0.3-0.4
		c4.2,2.4,9,3.7,13.9,3.7c3.6,0,7.2-0.7,10.6-2.2C56.8,55.5,57.3,56.1,56.8,56.4z"/>
	<path class="st10" d="M58.1,55c-0.4-0.5-2.6-0.2-3.6-0.1c-0.3,0-0.3-0.2-0.1-0.4c1.8-1.2,4.6-0.9,5-0.5s-0.1,3.3-1.7,4.7
		c-0.2,0.2-0.5,0.1-0.4-0.2C57.6,57.5,58.4,55.5,58.1,55z"/>
</g>
</svg>
